<svg xmlns="http://www.w3.org/2000/svg" xmlns:xlink="http://www.w3.org/1999/xlink" width="100" zoomAndPan="magnify" viewBox="0 0 75 30.000001" height="40" preserveAspectRatio="xMidYMid meet" version="1.0"><defs><clipPath id="517a18d8c6"><path d="M 1.210938 8.601562 L 13.640625 8.601562 L 13.640625 20.433594 L 1.210938 20.433594 Z M 1.210938 8.601562 " clip-rule="nonzero"/></clipPath><clipPath id="2aa8d5f1f5"><path d="M 7.417969 8.601562 L 8.882812 13.121094 L 13.625 13.121094 L 9.789062 15.914062 L 11.253906 20.433594 L 7.417969 17.640625 L 3.582031 20.433594 L 5.046875 15.914062 L 1.210938 13.121094 L 5.953125 13.121094 Z M 7.417969 8.601562 " clip-rule="nonzero"/></clipPath><clipPath id="4bf32c0f3f"><path d="M 16.25 8.601562 L 28.683594 8.601562 L 28.683594 20.433594 L 16.25 20.433594 Z M 16.25 8.601562 " clip-rule="nonzero"/></clipPath><clipPath id="21e1da8f16"><path d="M 22.457031 8.601562 L 23.921875 13.121094 L 28.664062 13.121094 L 24.828125 15.914062 L 26.292969 20.433594 L 22.457031 17.640625 L 18.621094 20.433594 L 20.085938 15.914062 L 16.25 13.121094 L 20.992188 13.121094 Z M 22.457031 8.601562 " clip-rule="nonzero"/></clipPath><clipPath id="7090868942"><path d="M 31.292969 8.601562 L 43.726562 8.601562 L 43.726562 20.433594 L 31.292969 20.433594 Z M 31.292969 8.601562 " clip-rule="nonzero"/></clipPath><clipPath id="56c1da46e1"><path d="M 37.5 8.601562 L 38.964844 13.121094 L 43.707031 13.121094 L 39.871094 15.914062 L 41.335938 20.433594 L 37.5 17.640625 L 33.664062 20.433594 L 35.128906 15.914062 L 31.292969 13.121094 L 36.035156 13.121094 Z M 37.5 8.601562 " clip-rule="nonzero"/></clipPath><clipPath id="d00597440d"><path d="M 46.335938 8.601562 L 58.769531 8.601562 L 58.769531 20.433594 L 46.335938 20.433594 Z M 46.335938 8.601562 " clip-rule="nonzero"/></clipPath><clipPath id="e6780a99ca"><path d="M 52.542969 8.601562 L 54.007812 13.121094 L 58.75 13.121094 L 54.914062 15.914062 L 56.378906 20.433594 L 52.542969 17.640625 L 48.707031 20.433594 L 50.171875 15.914062 L 46.335938 13.121094 L 51.078125 13.121094 Z M 52.542969 8.601562 " clip-rule="nonzero"/></clipPath><clipPath id="39643773bb"><path d="M 61.375 8.601562 L 73.789062 8.601562 L 73.789062 20.433594 L 61.375 20.433594 Z M 61.375 8.601562 " clip-rule="nonzero"/></clipPath><clipPath id="32b3d6a5cc"><path d="M 67.582031 8.601562 L 69.046875 13.121094 L 73.789062 13.121094 L 69.953125 15.914062 L 71.417969 20.433594 L 67.582031 17.640625 L 63.746094 20.433594 L 65.210938 15.914062 L 61.375 13.121094 L 66.117188 13.121094 Z M 67.582031 8.601562 " clip-rule="nonzero"/></clipPath></defs><g clip-path="url(#517a18d8c6)"><g clip-path="url(#2aa8d5f1f5)"><path fill="#f6cb0e" d="M 1.210938 8.601562 L 13.640625 8.601562 L 13.640625 20.433594 L 1.210938 20.433594 Z M 1.210938 8.601562 " fill-opacity="1" fill-rule="nonzero"/></g></g><g clip-path="url(#4bf32c0f3f)"><g clip-path="url(#21e1da8f16)"><path fill="#f6cb0e" d="M 16.25 8.601562 L 28.683594 8.601562 L 28.683594 20.433594 L 16.25 20.433594 Z M 16.25 8.601562 " fill-opacity="1" fill-rule="nonzero"/></g></g><g clip-path="url(#7090868942)"><g clip-path="url(#56c1da46e1)"><path fill="#f6cb0e" d="M 31.292969 8.601562 L 43.726562 8.601562 L 43.726562 20.433594 L 31.292969 20.433594 Z M 31.292969 8.601562 " fill-opacity="1" fill-rule="nonzero"/></g></g><g clip-path="url(#d00597440d)"><g clip-path="url(#e6780a99ca)"><path fill="#f6cb0e" d="M 46.335938 8.601562 L 58.769531 8.601562 L 58.769531 20.433594 L 46.335938 20.433594 Z M 46.335938 8.601562 " fill-opacity="1" fill-rule="nonzero"/></g></g><g clip-path="url(#39643773bb)"><g clip-path="url(#32b3d6a5cc)"><path fill="#f6cb0e" d="M 61.375 8.601562 L 73.808594 8.601562 L 73.808594 20.433594 L 61.375 20.433594 Z M 61.375 8.601562 " fill-opacity="1" fill-rule="nonzero"/></g></g></svg>