<svg xmlns="http://www.w3.org/2000/svg" xmlns:xlink="http://www.w3.org/1999/xlink" width="150" zoomAndPan="magnify" viewBox="0 0 112.5 184.499993" height="246" preserveAspectRatio="xMidYMid meet" version="1.0"><defs><clipPath id="b509671a10"><path d="M 2.023438 22.074219 L 111.785156 22.074219 L 111.785156 159 L 2.023438 159 Z M 2.023438 22.074219 " clip-rule="nonzero"/></clipPath></defs><g clip-path="url(#b509671a10)"><path fill="#52ff00" d="M 47.800781 23.722656 L 69.507812 47.078125 C 74.332031 45.847656 79.640625 46.976562 83.617188 50.527344 C 86.367188 52.988281 88.113281 56.28125 88.609375 59.90625 C 90.308594 60.558594 91.914062 61.523438 93.351562 62.800781 C 95.679688 64.882812 97.289062 67.5625 98.027344 70.535156 C 100.21875 71.140625 102.316406 72.234375 104.140625 73.828125 C 107.304688 76.457031 109.121094 80.355469 109.410156 85.019531 C 111.042969 87.523438 111.941406 90.46875 111.941406 93.503906 C 111.941406 100.304688 107.539062 106.101562 101.4375 108.191406 C 100.34375 113.859375 96.15625 118.433594 90.710938 120.089844 C 89.292969 127.191406 83.007812 132.5625 75.492188 132.5625 C 74.800781 132.5625 74.113281 132.515625 73.4375 132.429688 L 53.78125 157.390625 C 52.382812 159.167969 49.800781 159.457031 48.046875 158.035156 L 12.601562 129.351562 C 10.875 127.957031 10.589844 125.433594 11.964844 123.691406 L 17.214844 117.027344 C 8.167969 111.507812 2.089844 101.371094 2.089844 89.800781 C 2.089844 78.546875 7.839844 68.648438 16.480469 63.035156 L 12.1875 58.390625 C 10.699219 56.78125 10.761719 54.28125 12.320312 52.746094 L 41.988281 23.589844 C 43.617188 21.992188 46.246094 22.050781 47.800781 23.722656 Z M 47.800781 23.722656 " fill-opacity="1" fill-rule="nonzero"/></g><path fill="#000000" d="M 44.757812 29.882812 C 44.257812 29.871094 43.773438 30.0625 43.414062 30.414062 L 18.964844 54.441406 C 18.25 55.140625 18.222656 56.285156 18.902344 57.019531 L 26.851562 65.625 C 26.933594 65.765625 27.023438 65.902344 27.140625 66.023438 C 27.242188 66.125 27.347656 66.207031 27.457031 66.28125 L 33.589844 72.917969 L 31.566406 82.535156 C 31.566406 82.554688 31.5625 82.574219 31.554688 82.589844 C 31.203125 84.566406 31.425781 86.578125 32.195312 88.421875 L 36.003906 102.640625 L 18.804688 124.484375 C 18.175781 125.28125 18.304688 126.429688 19.09375 127.070312 L 48.847656 151.144531 C 49.234375 151.457031 49.726562 151.601562 50.21875 151.546875 C 50.707031 151.492188 51.160156 151.242188 51.464844 150.851562 L 71.253906 125.722656 C 72.535156 126.351562 73.96875 126.707031 75.488281 126.707031 C 80.8125 126.707031 85.140625 122.375 85.140625 117.050781 C 85.140625 116.277344 85.046875 115.527344 84.875 114.804688 C 85.308594 114.863281 85.75 114.898438 86.199219 114.898438 C 91.523438 114.898438 95.851562 110.566406 95.851562 105.242188 C 95.851562 104.515625 95.769531 103.808594 95.617188 103.125 C 95.882812 103.148438 96.148438 103.164062 96.421875 103.164062 C 101.746094 103.164062 106.074219 98.832031 106.074219 93.511719 C 106.074219 90.925781 105.054688 88.582031 103.394531 86.847656 C 103.453125 86.699219 103.488281 86.542969 103.503906 86.378906 C 103.53125 86.074219 103.546875 85.777344 103.546875 85.476562 C 103.546875 82.761719 102.394531 80.140625 100.363281 78.324219 C 98.132812 76.332031 95.21875 75.578125 92.472656 76.019531 C 92.574219 75.46875 92.621094 74.90625 92.621094 74.335938 C 92.621094 74.152344 92.617188 73.96875 92.605469 73.78125 C 92.460938 71.226562 91.339844 68.882812 89.4375 67.183594 C 87.460938 65.417969 84.953125 64.625 82.496094 64.769531 C 82.753906 63.902344 82.886719 62.992188 82.886719 62.0625 C 82.886719 61.875 82.878906 61.695312 82.871094 61.507812 C 82.726562 58.949219 81.601562 56.609375 79.699219 54.910156 C 76.359375 51.921875 71.476562 51.71875 67.925781 54.144531 L 46.0625 30.480469 C 45.734375 30.105469 45.257812 29.894531 44.757812 29.882812 Z M 42.171875 97.835938 C 43.546875 98.441406 44.605469 99.539062 45.144531 100.925781 C 46.265625 103.804688 44.839844 107.0625 41.960938 108.183594 C 41.773438 108.257812 41.585938 108.316406 41.394531 108.367188 C 41.347656 108.230469 41.304688 108.09375 41.269531 107.949219 L 38.476562 97.542969 C 39.695312 97.222656 40.988281 97.320312 42.171875 97.835938 Z M 22.847656 125.339844 L 28.550781 118.089844 L 55.425781 139.835938 L 49.722656 147.082031 Z M 75.492188 123 C 72.214844 123 69.542969 120.328125 69.542969 117.046875 C 69.542969 113.769531 72.214844 111.097656 75.492188 111.097656 C 78.773438 111.097656 81.445312 113.769531 81.445312 117.046875 C 81.445312 120.328125 78.773438 123 75.492188 123 Z M 92.152344 105.242188 C 92.152344 108.523438 89.484375 111.191406 86.203125 111.191406 C 82.921875 111.191406 80.253906 108.523438 80.253906 105.242188 C 80.253906 101.960938 82.921875 99.289062 86.203125 99.289062 C 87.542969 99.289062 88.777344 99.742188 89.769531 100.492188 C 89.988281 100.699219 90.210938 100.890625 90.445312 101.078125 C 91.5 102.152344 92.152344 103.621094 92.152344 105.242188 Z M 102.375 93.507812 C 102.375 96.789062 99.703125 99.457031 96.425781 99.457031 C 95.085938 99.457031 93.851562 99.007812 92.855469 98.257812 C 92.640625 98.050781 92.414062 97.855469 92.179688 97.671875 C 91.125 96.597656 90.472656 95.128906 90.472656 93.507812 C 90.472656 90.226562 93.144531 87.558594 96.425781 87.558594 C 99.703125 87.558594 102.375 90.226562 102.375 93.507812 Z M 77.242188 57.667969 C 78.40625 58.707031 79.09375 60.140625 79.183594 61.714844 C 79.269531 63.289062 78.746094 64.789062 77.710938 65.949219 L 57.613281 88.441406 C 56.929688 89.203125 56.996094 90.375 57.761719 91.058594 C 58.523438 91.738281 59.691406 91.671875 60.375 90.910156 L 62 89.085938 L 78.695312 70.40625 C 80.851562 67.992188 84.566406 67.785156 86.976562 69.941406 C 88.140625 70.980469 88.828125 72.417969 88.914062 73.988281 C 89.003906 75.558594 88.480469 77.0625 87.4375 78.230469 L 69.019531 99.042969 C 69.019531 99.042969 69.019531 99.046875 69.015625 99.046875 L 66.757812 101.570312 C 66.078125 102.332031 66.140625 103.503906 66.90625 104.183594 C 67.671875 104.867188 68.839844 104.800781 69.523438 104.039062 L 89.621094 81.546875 C 90.660156 80.382812 92.09375 79.691406 93.664062 79.605469 C 95.234375 79.515625 96.742188 80.042969 97.902344 81.082031 C 98.890625 81.960938 99.535156 83.15625 99.761719 84.445312 C 98.71875 84.0625 97.597656 83.851562 96.425781 83.851562 C 91.101562 83.851562 86.769531 88.179688 86.769531 93.503906 C 86.769531 94.230469 86.855469 94.9375 87.007812 95.621094 C 86.742188 95.597656 86.472656 95.585938 86.203125 95.585938 C 80.878906 95.585938 76.550781 99.914062 76.550781 105.238281 C 76.550781 106.011719 76.640625 106.761719 76.816406 107.484375 C 76.382812 107.425781 75.941406 107.390625 75.492188 107.390625 C 70.167969 107.390625 65.835938 111.722656 65.835938 117.046875 C 65.835938 119.519531 66.773438 121.773438 68.304688 123.480469 L 57.71875 136.921875 L 30.84375 115.179688 L 37.203125 107.101562 L 37.6875 108.910156 C 39.175781 114.457031 44.898438 117.757812 50.441406 116.273438 C 53.132812 115.554688 55.375 113.828125 56.765625 111.421875 C 58.160156 109.011719 58.527344 106.207031 57.808594 103.519531 L 52.496094 83.707031 L 53.566406 75.449219 L 68.957031 58.128906 C 69.996094 56.964844 71.433594 56.277344 73.003906 56.191406 C 74.578125 56.101562 76.078125 56.628906 77.242188 57.667969 Z M 65.269531 56.707031 L 50.421875 73.414062 C 50.175781 73.695312 50.015625 74.039062 49.96875 74.40625 L 48.777344 83.589844 C 48.765625 83.671875 48.761719 83.75 48.761719 83.828125 C 48.761719 83.988281 48.78125 84.152344 48.824219 84.308594 L 54.230469 104.476562 C 54.691406 106.207031 54.453125 108.015625 53.558594 109.566406 C 52.664062 111.121094 51.21875 112.230469 49.484375 112.695312 C 47.371094 113.261719 45.222656 112.746094 43.617188 111.496094 C 47.105469 109.988281 49.234375 106.566406 49.234375 102.949219 C 49.234375 101.824219 49.03125 100.683594 48.597656 99.578125 C 47.695312 97.269531 45.941406 95.445312 43.664062 94.441406 C 41.699219 93.582031 39.550781 93.421875 37.519531 93.96875 L 35.742188 87.335938 C 35.71875 87.25 35.691406 87.160156 35.652344 87.078125 C 35.132812 85.878906 34.976562 84.558594 35.203125 83.265625 L 37.417969 72.738281 C 37.539062 72.152344 37.371094 71.542969 36.964844 71.101562 L 31.089844 64.742188 L 52.898438 43.308594 Z M 50.378906 40.59375 L 28.570312 62.023438 L 22.839844 55.824219 L 44.648438 34.390625 Z M 25.429688 78.386719 L 16.765625 73.8125 C 15.863281 73.335938 15.515625 72.214844 15.992188 71.3125 C 16.46875 70.40625 17.589844 70.0625 18.496094 70.539062 L 27.15625 75.113281 C 27.789062 75.445312 28.144531 76.089844 28.144531 76.753906 C 28.144531 77.042969 28.078125 77.339844 27.933594 77.617188 C 27.453125 78.515625 26.332031 78.863281 25.429688 78.386719 Z M 23.933594 91.65625 L 14.132812 91.65625 C 13.113281 91.65625 12.28125 90.824219 12.28125 89.804688 C 12.28125 88.78125 13.113281 87.953125 14.132812 87.953125 L 23.933594 87.953125 C 24.953125 87.953125 25.785156 88.78125 25.785156 89.804688 C 25.785156 90.824219 24.953125 91.65625 23.933594 91.65625 Z M 18.496094 109.152344 C 17.589844 109.632812 16.46875 109.285156 15.992188 108.378906 C 15.511719 107.476562 15.859375 106.355469 16.765625 105.875 L 25.429688 101.304688 C 26.332031 100.824219 27.453125 101.171875 27.933594 102.078125 C 28.078125 102.351562 28.144531 102.648438 28.144531 102.941406 C 28.144531 103.605469 27.789062 104.25 27.15625 104.582031 Z M 18.496094 109.152344 " fill-opacity="1" fill-rule="nonzero"/></svg>