<svg xmlns="http://www.w3.org/2000/svg" xmlns:xlink="http://www.w3.org/1999/xlink" width="150" zoomAndPan="magnify" viewBox="0 0 112.5 184.499993" height="246" preserveAspectRatio="xMidYMid meet" version="1.0"><defs><clipPath id="ec9bf2ec21"><path d="M 0 15 L 112 15 L 112 170 L 0 170 Z M 0 15 " clip-rule="nonzero"/></clipPath><clipPath id="991fdad9ea"><path d="M -38.023438 61.761719 L 89.816406 11.433594 L 136.042969 128.851562 L 8.203125 179.179688 Z M -38.023438 61.761719 " clip-rule="nonzero"/></clipPath><clipPath id="e566b46a4b"><path d="M -38.023438 61.761719 L 89.816406 11.433594 L 136.042969 128.851562 L 8.203125 179.179688 Z M -38.023438 61.761719 " clip-rule="nonzero"/></clipPath><clipPath id="c864bedb20"><path d="M 7 21 L 106 21 L 106 163 L 7 163 Z M 7 21 " clip-rule="nonzero"/></clipPath><clipPath id="5f82a0d96b"><path d="M -38.023438 61.761719 L 89.816406 11.433594 L 136.042969 128.851562 L 8.203125 179.179688 Z M -38.023438 61.761719 " clip-rule="nonzero"/></clipPath><clipPath id="61f8642a30"><path d="M -38.023438 61.761719 L 89.816406 11.433594 L 136.042969 128.851562 L 8.203125 179.179688 Z M -38.023438 61.761719 " clip-rule="nonzero"/></clipPath></defs><g clip-path="url(#ec9bf2ec21)"><g clip-path="url(#991fdad9ea)"><g clip-path="url(#e566b46a4b)"><path fill="#ff66c4" d="M 110.777344 64.355469 C 112.207031 67.746094 111.65625 71.625 109.347656 74.488281 C 107.035156 77.351562 103.355469 78.703125 99.742188 78.023438 L 92.304688 76.625 L 85.894531 110.726562 C 85.425781 113.21875 83.480469 115.167969 80.992188 115.644531 L 46.996094 122.136719 L 36.085938 164.390625 C 35.238281 167.691406 31.875 169.671875 28.574219 168.820312 L 5.390625 162.835938 C 2.09375 161.988281 0.109375 158.625 0.964844 155.328125 L 16.636719 94.597656 C 17.234375 92.289062 19.109375 90.53125 21.449219 90.082031 L 54.03125 83.863281 L 56.652344 69.921875 L 49.40625 68.5625 C 46.148438 67.949219 43.3125 65.839844 41.957031 62.808594 C 40.273438 59.03125 41.074219 54.691406 43.898438 51.78125 L 76.347656 18.304688 C 78.6875 15.894531 82.050781 14.824219 85.351562 15.445312 C 88.652344 16.066406 91.398438 18.285156 92.703125 21.378906 Z M 110.777344 64.355469 " fill-opacity="1" fill-rule="nonzero"/></g></g></g><g clip-path="url(#c864bedb20)"><g clip-path="url(#5f82a0d96b)"><g clip-path="url(#61f8642a30)"><path fill="#000000" d="M 86.925781 23.808594 C 86.441406 22.65625 85.421875 21.828125 84.195312 21.601562 C 82.964844 21.371094 81.714844 21.769531 80.84375 22.664062 L 48.394531 56.136719 C 47.441406 57.117188 47.109375 58.539062 47.523438 59.839844 C 47.9375 61.144531 49.03125 62.109375 50.375 62.359375 L 63.96875 64.917969 L 59.402344 89.210938 L 23.917969 95.988281 C 23.167969 96.128906 22.5625 96.695312 22.375 97.433594 L 7.550781 154.878906 C 7.273438 155.9375 7.910156 157.015625 8.96875 157.289062 L 28.128906 162.234375 C 28.535156 162.339844 28.964844 162.308594 29.347656 162.15625 C 29.441406 162.121094 29.539062 162.074219 29.628906 162.023438 C 30.078125 161.757812 30.40625 161.320312 30.539062 160.8125 L 41.917969 116.726562 L 78.421875 109.757812 C 79.21875 109.601562 79.847656 108.976562 79.996094 108.175781 L 87.300781 69.304688 L 100.898438 71.859375 C 102.238281 72.113281 103.609375 71.609375 104.464844 70.546875 C 105.328125 69.480469 105.53125 68.039062 105 66.777344 Z M 86.09375 65.054688 C 85.574219 64.957031 85.042969 65.070312 84.609375 65.363281 C 84.175781 65.660156 83.878906 66.117188 83.78125 66.632812 L 76.355469 106.121094 L 39.941406 113.074219 C 39.191406 113.222656 38.589844 113.78125 38.394531 114.523438 L 27.199219 157.910156 L 11.875 153.953125 L 25.894531 99.644531 L 61.46875 92.851562 C 62.265625 92.699219 62.890625 92.070312 63.042969 91.273438 L 68.226562 63.710938 C 68.425781 62.636719 67.722656 61.601562 66.648438 61.402344 L 51.558594 58.5625 L 83.421875 25.691406 L 101.175781 67.894531 Z M 86.09375 65.054688 " fill-opacity="1" fill-rule="nonzero"/></g></g></g></svg>