<svg xmlns="http://www.w3.org/2000/svg" xmlns:xlink="http://www.w3.org/1999/xlink" width="150" zoomAndPan="magnify" viewBox="0 0 112.5 184.499993" height="246" preserveAspectRatio="xMidYMid meet" version="1.0"><defs><clipPath id="030abc4962"><path d="M 0 11.359375 L 109.761719 11.359375 L 109.761719 160.695312 L 0 160.695312 Z M 0 11.359375 " clip-rule="nonzero"/></clipPath></defs><g clip-path="url(#030abc4962)"><path fill="#ff3131" d="M 109.003906 49.953125 L 104.265625 146.949219 C 104.074219 150.859375 102.375 154.460938 99.472656 157.089844 C 96.753906 159.554688 93.289062 160.890625 89.640625 160.890625 C 89.398438 160.890625 89.15625 160.882812 88.910156 160.875 L 14.109375 157.21875 C 10.203125 157.027344 6.597656 155.328125 3.96875 152.425781 C 1.339844 149.527344 -0.00390625 145.777344 0.1875 141.867188 L 4.921875 44.867188 C 5.316406 36.796875 12.195312 30.550781 20.273438 30.945312 L 30.273438 31.433594 C 30.539062 31.148438 30.820312 30.871094 31.113281 30.605469 C 33.710938 28.25 37.070312 27.046875 40.574219 27.21875 L 41.433594 27.257812 C 42.0625 18.347656 49.722656 11.503906 58.695312 11.941406 C 63.097656 12.15625 67.15625 14.070312 70.113281 17.335938 C 72.996094 20.511719 74.5 24.59375 74.382812 28.867188 L 75.242188 28.910156 C 78.742188 29.082031 81.972656 30.605469 84.324219 33.203125 C 84.59375 33.496094 84.84375 33.800781 85.078125 34.109375 L 95.078125 34.597656 C 103.148438 34.992188 109.394531 41.878906 109.003906 49.953125 Z M 109.003906 49.953125 " fill-opacity="1" fill-rule="nonzero"/></g><path fill="#000000" d="M 94.761719 41 L 81.105469 40.332031 C 80.386719 37.566406 77.933594 35.457031 74.925781 35.308594 L 65.65625 34.855469 C 67.003906 33.234375 67.859375 31.179688 67.96875 28.914062 C 68.097656 26.222656 67.175781 23.640625 65.363281 21.640625 C 63.550781 19.644531 61.074219 18.472656 58.378906 18.339844 C 52.824219 18.0625 48.074219 22.371094 47.800781 27.929688 C 47.691406 30.195312 48.339844 32.320312 49.523438 34.066406 L 40.253906 33.613281 C 38.460938 33.523438 36.742188 34.144531 35.414062 35.347656 C 34.59375 36.089844 33.988281 37 33.621094 38.011719 L 19.960938 37.34375 C 15.417969 37.121094 11.542969 40.640625 11.324219 45.183594 L 6.589844 142.179688 C 6.480469 144.378906 7.234375 146.488281 8.71875 148.121094 C 10.199219 149.753906 12.226562 150.710938 14.425781 150.820312 L 89.226562 154.472656 C 89.367188 154.480469 89.503906 154.484375 89.640625 154.484375 C 91.691406 154.484375 93.640625 153.730469 95.167969 152.34375 C 96.800781 150.863281 97.757812 148.839844 97.867188 146.636719 L 102.601562 49.640625 C 102.824219 45.097656 99.308594 41.222656 94.761719 41 Z M 39.304688 53.144531 C 39.304688 53.144531 39.308594 53.144531 39.304688 53.144531 L 62.511719 54.28125 L 86.191406 55.4375 L 82.144531 138.367188 L 23.039062 135.480469 L 27.089844 52.550781 Z M 51.851562 28.128906 C 52.007812 24.898438 54.6875 22.378906 57.886719 22.378906 C 57.984375 22.378906 58.082031 22.378906 58.179688 22.382812 C 59.792969 22.460938 61.28125 23.167969 62.363281 24.359375 C 63.449219 25.554688 64.003906 27.101562 63.921875 28.714844 C 63.761719 32.046875 60.921875 34.621094 57.589844 34.460938 C 54.265625 34.300781 51.6875 31.457031 51.851562 28.128906 Z M 38.136719 38.351562 C 38.667969 37.871094 39.347656 37.625 40.058594 37.664062 L 74.726562 39.355469 C 76.199219 39.425781 77.335938 40.679688 77.265625 42.152344 L 76.96875 48.261719 C 76.898438 49.734375 75.648438 50.871094 74.171875 50.796875 L 39.5 49.105469 C 38.027344 49.03125 36.890625 47.777344 36.964844 46.308594 L 37.261719 40.199219 C 37.300781 39.484375 37.609375 38.828125 38.136719 38.351562 Z M 93.820312 146.4375 C 93.765625 147.558594 93.277344 148.589844 92.445312 149.34375 C 91.617188 150.09375 90.539062 150.488281 89.417969 150.425781 L 14.621094 146.773438 C 13.5 146.71875 12.46875 146.230469 11.714844 145.398438 C 10.964844 144.570312 10.578125 143.492188 10.632812 142.375 L 15.367188 45.378906 C 15.476562 43.070312 17.449219 41.28125 19.765625 41.390625 L 33.121094 42.042969 L 32.921875 46.105469 C 32.875 47.054688 33.03125 47.964844 33.347656 48.800781 L 25.261719 48.40625 C 24.726562 48.378906 24.203125 48.570312 23.804688 48.929688 C 23.410156 49.289062 23.171875 49.792969 23.144531 50.328125 L 18.898438 137.304688 C 18.871094 137.839844 19.058594 138.363281 19.421875 138.761719 C 19.78125 139.160156 20.285156 139.394531 20.820312 139.421875 L 83.964844 142.503906 C 84 142.503906 84.03125 142.507812 84.066406 142.507812 C 85.140625 142.507812 86.03125 141.664062 86.085938 140.582031 L 90.332031 53.609375 C 90.386719 52.492188 89.527344 51.542969 88.410156 51.488281 L 80.324219 51.09375 C 80.71875 50.292969 80.96875 49.402344 81.011719 48.453125 L 81.210938 44.390625 L 94.566406 45.039062 C 96.878906 45.152344 98.667969 47.125 98.558594 49.4375 Z M 33.28125 80.273438 L 47.21875 80.953125 C 47.25 80.953125 47.285156 80.957031 47.320312 80.957031 C 48.390625 80.957031 49.285156 80.113281 49.339844 79.03125 L 50.019531 65.09375 C 50.074219 63.976562 49.214844 63.03125 48.097656 62.972656 L 34.164062 62.292969 C 33.046875 62.238281 32.097656 63.097656 32.039062 64.214844 L 31.359375 78.148438 C 31.304688 79.269531 32.164062 80.21875 33.28125 80.273438 Z M 35.984375 66.433594 L 45.878906 66.917969 L 45.394531 76.8125 L 35.503906 76.328125 Z M 32.152344 103.371094 L 46.085938 104.050781 C 46.121094 104.050781 46.15625 104.054688 46.1875 104.054688 C 47.261719 104.054688 48.15625 103.210938 48.210938 102.128906 L 48.890625 88.191406 C 48.945312 87.078125 48.085938 86.128906 46.96875 86.070312 L 33.03125 85.390625 C 32.496094 85.363281 31.972656 85.550781 31.574219 85.914062 C 31.175781 86.273438 30.941406 86.777344 30.914062 87.3125 L 30.234375 101.25 C 30.207031 101.785156 30.394531 102.308594 30.753906 102.707031 C 31.113281 103.105469 31.621094 103.347656 32.152344 103.371094 Z M 34.855469 89.53125 L 44.75 90.015625 L 44.265625 99.910156 L 34.371094 99.425781 Z M 31.027344 126.472656 L 44.960938 127.152344 C 44.996094 127.152344 45.027344 127.15625 45.0625 127.15625 C 46.136719 127.15625 47.027344 126.3125 47.082031 125.230469 L 47.765625 111.292969 C 47.792969 110.757812 47.601562 110.234375 47.242188 109.835938 C 46.878906 109.4375 46.378906 109.203125 45.839844 109.175781 L 31.90625 108.496094 C 30.789062 108.441406 29.839844 109.300781 29.785156 110.417969 L 29.101562 124.351562 C 29.074219 124.890625 29.265625 125.410156 29.625 125.808594 C 29.988281 126.203125 30.488281 126.445312 31.027344 126.472656 Z M 33.726562 112.632812 L 43.621094 113.117188 L 43.140625 123.011719 L 33.246094 122.527344 Z M 53.722656 72.261719 C 53.777344 71.144531 54.726562 70.28125 55.84375 70.335938 L 77.867188 71.414062 C 78.980469 71.46875 79.84375 72.417969 79.789062 73.535156 C 79.734375 74.617188 78.839844 75.460938 77.769531 75.460938 C 77.734375 75.460938 77.699219 75.460938 77.667969 75.457031 L 55.644531 74.382812 C 54.527344 74.324219 53.667969 73.375 53.722656 72.261719 Z M 52.59375 95.359375 C 52.648438 94.242188 53.601562 93.382812 54.71875 93.433594 L 76.738281 94.511719 C 77.855469 94.566406 78.714844 95.515625 78.660156 96.632812 C 78.609375 97.714844 77.714844 98.558594 76.640625 98.558594 C 76.605469 98.558594 76.574219 98.558594 76.539062 98.554688 L 54.519531 97.480469 C 53.402344 97.421875 52.542969 96.476562 52.59375 95.359375 Z M 51.464844 118.457031 C 51.519531 117.339844 52.46875 116.476562 53.585938 116.535156 L 75.609375 117.609375 C 76.726562 117.664062 77.585938 118.613281 77.53125 119.730469 C 77.476562 120.8125 76.582031 121.65625 75.511719 121.65625 C 75.476562 121.65625 75.445312 121.65625 75.410156 121.652344 L 53.386719 120.578125 C 52.269531 120.519531 51.410156 119.574219 51.464844 118.457031 Z M 51.464844 118.457031 " fill-opacity="1" fill-rule="nonzero"/></svg>