<svg xmlns="http://www.w3.org/2000/svg" xmlns:xlink="http://www.w3.org/1999/xlink" width="500" zoomAndPan="magnify" viewBox="0 0 375 149.999998" height="200" preserveAspectRatio="xMidYMid meet" version="1.0"><defs><g/><clipPath id="8df64e19c4"><path d="M 3.324219 8.4375 L 372 8.4375 L 372 128.347656 L 3.324219 128.347656 Z M 3.324219 8.4375 " clip-rule="nonzero"/></clipPath><clipPath id="9da528053a"><path d="M 3.324219 8.441406 L 372.101562 8.441406 L 372.101562 128.34375 L 3.324219 128.34375 Z M 3.324219 8.441406 " clip-rule="nonzero"/></clipPath><clipPath id="308138890f"><path d="M 103.164062 111.058594 L 272.265625 111.058594 L 272.265625 135.96875 L 103.164062 135.96875 Z M 103.164062 111.058594 " clip-rule="nonzero"/></clipPath></defs><g clip-path="url(#8df64e19c4)"><path fill="#211f3c" d="M 3.324219 8.4375 L 371.945312 8.4375 L 371.945312 128.347656 L 3.324219 128.347656 Z M 3.324219 8.4375 " fill-opacity="1" fill-rule="nonzero"/></g><g clip-path="url(#9da528053a)"><path stroke-linecap="butt" transform="matrix(0.75, 0, 0, 0.75, 3.323444, 8.43981)" fill="none" stroke-linejoin="miter" d="M 0.00103349 0.00212888 L 491.704187 0.00212888 L 491.704187 159.87193 L 0.00103349 159.87193 Z M 0.00103349 0.00212888 " stroke="#ffffff" stroke-width="4" stroke-opacity="1" stroke-miterlimit="4"/></g><g clip-path="url(#308138890f)"><path fill="#211f3c" d="M 103.164062 111.058594 L 272.292969 111.058594 L 272.292969 135.96875 L 103.164062 135.96875 Z M 103.164062 111.058594 " fill-opacity="1" fill-rule="nonzero"/></g><g fill="#ffffff" fill-opacity="1"><g transform="translate(26.841584, 91.046086)"><g><path d="M 16.328125 -49.171875 L 16.328125 0 L 4.34375 0 L 4.34375 -49.171875 Z M 16.328125 -49.171875 "/></g></g></g><g fill="#ffffff" fill-opacity="1"><g transform="translate(50.094562, 91.046086)"><g><path d="M 60.03125 -49.171875 L 60.03125 0 L 48.046875 0 L 48.046875 -29.484375 L 37.0625 0 L 27.390625 0 L 16.328125 -29.5625 L 16.328125 0 L 4.34375 0 L 4.34375 -49.171875 L 18.5 -49.171875 L 32.296875 -15.125 L 45.953125 -49.171875 Z M 60.03125 -49.171875 "/></g></g></g><g fill="#ffffff" fill-opacity="1"><g transform="translate(116.980557, 91.046086)"><g><path d="M 41.8125 -33.34375 C 41.8125 -30.488281 41.15625 -27.882812 39.84375 -25.53125 C 38.539062 -23.175781 36.535156 -21.273438 33.828125 -19.828125 C 31.117188 -18.378906 27.757812 -17.65625 23.75 -17.65625 L 16.328125 -17.65625 L 16.328125 0 L 4.34375 0 L 4.34375 -49.171875 L 23.75 -49.171875 C 27.664062 -49.171875 30.976562 -48.492188 33.6875 -47.140625 C 36.394531 -45.785156 38.425781 -43.914062 39.78125 -41.53125 C 41.132812 -39.15625 41.8125 -36.425781 41.8125 -33.34375 Z M 22.828125 -27.171875 C 25.117188 -27.171875 26.820312 -27.707031 27.9375 -28.78125 C 29.0625 -29.863281 29.625 -31.382812 29.625 -33.34375 C 29.625 -35.300781 29.0625 -36.816406 27.9375 -37.890625 C 26.820312 -38.960938 25.117188 -39.5 22.828125 -39.5 L 16.328125 -39.5 L 16.328125 -27.171875 Z M 22.828125 -27.171875 "/></g></g></g><g fill="#ffffff" fill-opacity="1"><g transform="translate(163.275686, 91.046086)"><g><path d="M 16.109375 -49.171875 L 16.109375 -19.75 C 16.109375 -16.8125 16.832031 -14.546875 18.28125 -12.953125 C 19.726562 -11.367188 21.851562 -10.578125 24.65625 -10.578125 C 27.457031 -10.578125 29.601562 -11.367188 31.09375 -12.953125 C 32.59375 -14.546875 33.34375 -16.8125 33.34375 -19.75 L 33.34375 -49.171875 L 45.328125 -49.171875 L 45.328125 -19.828125 C 45.328125 -15.429688 44.390625 -11.710938 42.515625 -8.671875 C 40.648438 -5.640625 38.140625 -3.351562 34.984375 -1.8125 C 31.835938 -0.28125 28.328125 0.484375 24.453125 0.484375 C 20.566406 0.484375 17.09375 -0.269531 14.03125 -1.78125 C 10.976562 -3.300781 8.5625 -5.585938 6.78125 -8.640625 C 5.007812 -11.703125 4.125 -15.429688 4.125 -19.828125 L 4.125 -49.171875 Z M 16.109375 -49.171875 "/></g></g></g><g fill="#ffffff" fill-opacity="1"><g transform="translate(215.243809, 91.046086)"><g><path d="M 16.328125 -9.25 L 32.015625 -9.25 L 32.015625 0 L 4.34375 0 L 4.34375 -49.171875 L 16.328125 -49.171875 Z M 16.328125 -9.25 "/></g></g></g><g fill="#ffffff" fill-opacity="1"><g transform="translate(251.243528, 91.046086)"><g><path d="M 22.140625 0.484375 C 18.535156 0.484375 15.3125 -0.0976562 12.46875 -1.265625 C 9.625 -2.429688 7.347656 -4.15625 5.640625 -6.4375 C 3.929688 -8.726562 3.03125 -11.484375 2.9375 -14.703125 L 15.6875 -14.703125 C 15.875 -12.890625 16.503906 -11.503906 17.578125 -10.546875 C 18.648438 -9.585938 20.050781 -9.109375 21.78125 -9.109375 C 23.5625 -9.109375 24.960938 -9.515625 25.984375 -10.328125 C 27.015625 -11.148438 27.53125 -12.285156 27.53125 -13.734375 C 27.53125 -14.941406 27.117188 -15.941406 26.296875 -16.734375 C 25.484375 -17.535156 24.476562 -18.191406 23.28125 -18.703125 C 22.09375 -19.210938 20.40625 -19.796875 18.21875 -20.453125 C 15.039062 -21.429688 12.445312 -22.410156 10.4375 -23.390625 C 8.425781 -24.367188 6.695312 -25.816406 5.25 -27.734375 C 3.800781 -29.648438 3.078125 -32.148438 3.078125 -35.234375 C 3.078125 -39.804688 4.734375 -43.390625 8.046875 -45.984375 C 11.367188 -48.578125 15.691406 -49.875 21.015625 -49.875 C 26.429688 -49.875 30.796875 -48.578125 34.109375 -45.984375 C 37.429688 -43.390625 39.207031 -39.78125 39.4375 -35.15625 L 26.484375 -35.15625 C 26.390625 -36.75 25.800781 -38 24.71875 -38.90625 C 23.644531 -39.820312 22.269531 -40.28125 20.59375 -40.28125 C 19.144531 -40.28125 17.976562 -39.894531 17.09375 -39.125 C 16.207031 -38.351562 15.765625 -37.242188 15.765625 -35.796875 C 15.765625 -34.203125 16.507812 -32.960938 18 -32.078125 C 19.5 -31.191406 21.832031 -30.234375 25 -29.203125 C 28.175781 -28.128906 30.753906 -27.101562 32.734375 -26.125 C 34.722656 -25.144531 36.441406 -23.71875 37.890625 -21.84375 C 39.335938 -19.976562 40.0625 -17.578125 40.0625 -14.640625 C 40.0625 -11.835938 39.347656 -9.289062 37.921875 -7 C 36.503906 -4.71875 34.441406 -2.898438 31.734375 -1.546875 C 29.023438 -0.191406 25.828125 0.484375 22.140625 0.484375 Z M 22.140625 0.484375 "/></g></g></g><g fill="#ffffff" fill-opacity="1"><g transform="translate(296.908339, 91.046086)"><g><path d="M 34.953125 -8.6875 L 16.59375 -8.6875 L 13.65625 0 L 1.125 0 L 18.90625 -49.171875 L 32.78125 -49.171875 L 50.578125 0 L 37.890625 0 Z M 31.875 -17.9375 L 25.78125 -35.9375 L 19.75 -17.9375 Z M 31.875 -17.9375 "/></g></g></g><g fill="#e16f11" fill-opacity="1"><g transform="translate(112.235394, 132.685007)"><g><path d="M 20.328125 -16.65625 L 20.328125 0 L 16.265625 0 L 16.265625 -9.984375 L 12.546875 0 L 9.28125 0 L 5.53125 -10.015625 L 5.53125 0 L 1.46875 0 L 1.46875 -16.65625 L 6.265625 -16.65625 L 10.9375 -5.125 L 15.5625 -16.65625 Z M 20.328125 -16.65625 "/></g></g></g><g fill="#e16f11" fill-opacity="1"><g transform="translate(134.00923, 132.685007)"><g><path d="M 11.125 0 L 5.53125 -7.359375 L 5.53125 0 L 1.46875 0 L 1.46875 -16.65625 L 5.53125 -16.65625 L 5.53125 -9.34375 L 11.078125 -16.65625 L 15.84375 -16.65625 L 9.390625 -8.484375 L 16.078125 0 Z M 11.125 0 "/></g></g></g><g fill="#e16f11" fill-opacity="1"><g transform="translate(150.541215, 132.685007)"><g><path d="M 13.453125 -16.65625 L 13.453125 -13.40625 L 9.03125 -13.40625 L 9.03125 0 L 4.984375 0 L 4.984375 -13.40625 L 0.5625 -13.40625 L 0.5625 -16.65625 Z M 13.453125 -16.65625 "/></g></g></g><g fill="#ffffff" fill-opacity="1"><g transform="translate(164.559609, 132.685007)"><g/></g></g><g fill="#ffde00" fill-opacity="1"><g transform="translate(171.063515, 132.685007)"><g><path d="M 7.703125 -16.65625 C 9.460938 -16.65625 11 -16.304688 12.3125 -15.609375 C 13.625 -14.910156 14.640625 -13.929688 15.359375 -12.671875 C 16.078125 -11.421875 16.4375 -9.972656 16.4375 -8.328125 C 16.4375 -6.691406 16.078125 -5.242188 15.359375 -3.984375 C 14.640625 -2.722656 13.617188 -1.742188 12.296875 -1.046875 C 10.972656 -0.347656 9.441406 0 7.703125 0 L 1.46875 0 L 1.46875 -16.65625 Z M 7.453125 -3.515625 C 8.984375 -3.515625 10.175781 -3.929688 11.03125 -4.765625 C 11.882812 -5.609375 12.3125 -6.796875 12.3125 -8.328125 C 12.3125 -9.859375 11.882812 -11.050781 11.03125 -11.90625 C 10.175781 -12.757812 8.984375 -13.1875 7.453125 -13.1875 L 5.53125 -13.1875 L 5.53125 -3.515625 Z M 7.453125 -3.515625 "/></g></g></g><g fill="#ffde00" fill-opacity="1"><g transform="translate(188.30706, 132.685007)"><g><path d="M 5.53125 -16.65625 L 5.53125 0 L 1.46875 0 L 1.46875 -16.65625 Z M 5.53125 -16.65625 "/></g></g></g><g fill="#ffde00" fill-opacity="1"><g transform="translate(195.304103, 132.685007)"><g><path d="M 12.53125 -11.390625 C 12.226562 -11.941406 11.796875 -12.363281 11.234375 -12.65625 C 10.671875 -12.945312 10.007812 -13.09375 9.25 -13.09375 C 7.9375 -13.09375 6.882812 -12.660156 6.09375 -11.796875 C 5.300781 -10.929688 4.90625 -9.78125 4.90625 -8.34375 C 4.90625 -6.8125 5.320312 -5.613281 6.15625 -4.75 C 6.988281 -3.894531 8.128906 -3.46875 9.578125 -3.46875 C 10.578125 -3.46875 11.421875 -3.71875 12.109375 -4.21875 C 12.796875 -4.726562 13.296875 -5.457031 13.609375 -6.40625 L 8.46875 -6.40625 L 8.46875 -9.390625 L 17.296875 -9.390625 L 17.296875 -5.625 C 16.992188 -4.613281 16.484375 -3.671875 15.765625 -2.796875 C 15.046875 -1.929688 14.128906 -1.226562 13.015625 -0.6875 C 11.910156 -0.144531 10.664062 0.125 9.28125 0.125 C 7.632812 0.125 6.164062 -0.234375 4.875 -0.953125 C 3.582031 -1.679688 2.578125 -2.679688 1.859375 -3.953125 C 1.140625 -5.234375 0.78125 -6.695312 0.78125 -8.34375 C 0.78125 -9.988281 1.140625 -11.457031 1.859375 -12.75 C 2.578125 -14.039062 3.578125 -15.046875 4.859375 -15.765625 C 6.140625 -16.484375 7.601562 -16.84375 9.25 -16.84375 C 11.238281 -16.84375 12.914062 -16.359375 14.28125 -15.390625 C 15.65625 -14.429688 16.5625 -13.097656 17 -11.390625 Z M 12.53125 -11.390625 "/></g></g></g><g fill="#ffde00" fill-opacity="1"><g transform="translate(213.377813, 132.685007)"><g><path d="M 5.53125 -16.65625 L 5.53125 0 L 1.46875 0 L 1.46875 -16.65625 Z M 5.53125 -16.65625 "/></g></g></g><g fill="#ffde00" fill-opacity="1"><g transform="translate(220.374857, 132.685007)"><g><path d="M 13.453125 -16.65625 L 13.453125 -13.40625 L 9.03125 -13.40625 L 9.03125 0 L 4.984375 0 L 4.984375 -13.40625 L 0.5625 -13.40625 L 0.5625 -16.65625 Z M 13.453125 -16.65625 "/></g></g></g><g fill="#ffde00" fill-opacity="1"><g transform="translate(234.392655, 132.685007)"><g><path d="M 11.828125 -2.9375 L 5.625 -2.9375 L 4.625 0 L 0.375 0 L 6.40625 -16.65625 L 11.09375 -16.65625 L 17.125 0 L 12.828125 0 Z M 10.796875 -6.078125 L 8.734375 -12.171875 L 6.6875 -6.078125 Z M 10.796875 -6.078125 "/></g></g></g><g fill="#ffde00" fill-opacity="1"><g transform="translate(251.87339, 132.685007)"><g><path d="M 5.53125 -3.125 L 10.84375 -3.125 L 10.84375 0 L 1.46875 0 L 1.46875 -16.65625 L 5.53125 -16.65625 Z M 5.53125 -3.125 "/></g></g></g></svg>