<svg xmlns="http://www.w3.org/2000/svg" xmlns:xlink="http://www.w3.org/1999/xlink" width="500" zoomAndPan="magnify" viewBox="0 0 375 149.999998" height="200" preserveAspectRatio="xMidYMid meet" version="1.0"><defs><g/></defs><g fill="#ffffff" fill-opacity="1"><g transform="translate(7.705557, 89.343291)"><g><path d="M 18.859375 1.296875 C 15.390625 1.296875 12.546875 0.359375 10.328125 -1.515625 C 8.109375 -3.390625 7 -5.84375 7 -8.875 C 7.007812 -11.132812 7.632812 -13.164062 8.875 -14.96875 C 10.113281 -16.769531 11.722656 -18.617188 13.703125 -20.515625 C 15.679688 -22.421875 17.835938 -24.675781 20.171875 -27.28125 C 23.078125 -30.53125 25.554688 -33.863281 27.609375 -37.28125 C 29.660156 -40.695312 31.570312 -44.398438 33.34375 -48.390625 C 35.125 -52.378906 37.007812 -56.84375 39 -61.78125 C 35.894531 -62.5 33.015625 -62.613281 30.359375 -62.125 C 27.710938 -61.632812 25.570312 -60.628906 23.9375 -59.109375 C 22.3125 -57.585938 21.5 -55.628906 21.5 -53.234375 C 21.488281 -51.679688 21.867188 -50.390625 22.640625 -49.359375 C 23.421875 -48.335938 24.378906 -47.828125 25.515625 -47.828125 C 26.003906 -46.703125 26.035156 -45.34375 25.609375 -43.75 C 25.179688 -42.164062 24.347656 -40.648438 23.109375 -39.203125 C 21.878906 -37.753906 20.289062 -36.535156 18.34375 -35.546875 C 16.394531 -34.566406 14.148438 -34.082031 11.609375 -34.09375 C 8.710938 -34.09375 6.273438 -34.75 4.296875 -36.0625 C 2.328125 -37.375 0.851562 -39.070312 -0.125 -41.15625 C -1.101562 -43.238281 -1.59375 -45.476562 -1.59375 -47.875 C -1.582031 -53.457031 -0.0195312 -58.59375 3.09375 -63.28125 C 6.207031 -67.96875 10.644531 -71.71875 16.40625 -74.53125 C 22.164062 -77.351562 28.96875 -78.753906 36.8125 -78.734375 C 41.957031 -78.722656 45.675781 -78.046875 47.96875 -76.703125 C 50.257812 -75.359375 51.539062 -73.410156 51.8125 -70.859375 C 52.09375 -68.316406 51.773438 -65.25 50.859375 -61.65625 C 50.078125 -58.476562 49.132812 -54.84375 48.03125 -50.75 C 46.925781 -46.65625 45.734375 -42.421875 44.453125 -38.046875 C 43.171875 -33.671875 41.90625 -29.453125 40.65625 -25.390625 C 39.414062 -21.335938 38.265625 -17.789062 37.203125 -14.75 C 35.503906 -9.53125 33.0625 -5.546875 29.875 -2.796875 C 26.695312 -0.0546875 23.023438 1.304688 18.859375 1.296875 Z M 18.859375 1.296875 "/></g></g></g><g fill="#ffffff" fill-opacity="1"><g transform="translate(52.718915, 89.431333)"><g><path d="M 6.671875 0.015625 C 4.203125 0.00390625 2.296875 -0.738281 0.953125 -2.21875 C -0.378906 -3.707031 -1.046875 -5.546875 -1.046875 -7.734375 C -1.046875 -10.203125 -0.828125 -13.289062 -0.390625 -17 C 0.046875 -20.707031 1.007812 -24.710938 2.5 -29.015625 C 3.976562 -33.390625 5.425781 -37.375 6.84375 -40.96875 C 8.269531 -44.570312 9.707031 -47.46875 11.15625 -49.65625 C 12.613281 -51.84375 14.050781 -52.9375 15.46875 -52.9375 C 16.664062 -52.9375 17.507812 -52.53125 18 -51.71875 C 18.488281 -50.90625 18.734375 -49.96875 18.734375 -48.90625 C 18.734375 -47.132812 19.257812 -45.925781 20.3125 -45.28125 C 21.375 -44.644531 22.753906 -45.175781 24.453125 -46.875 C 26.429688 -48.78125 28.484375 -50.257812 30.609375 -51.3125 C 32.734375 -52.375 34.957031 -52.898438 37.28125 -52.890625 C 39.894531 -52.890625 41.957031 -52.25 43.46875 -50.96875 C 44.988281 -49.6875 45.992188 -48.09375 46.484375 -46.1875 C 46.628906 -45.488281 46.910156 -45.082031 47.328125 -44.96875 C 47.753906 -44.863281 48.359375 -45.269531 49.140625 -46.1875 C 51.179688 -48.4375 53.332031 -50.144531 55.59375 -51.3125 C 57.863281 -52.476562 60.269531 -53.054688 62.8125 -53.046875 C 66.976562 -53.035156 69.90625 -52.078125 71.59375 -50.171875 C 73.289062 -48.265625 74.132812 -45.96875 74.125 -43.28125 C 74.125 -41.445312 73.835938 -39.769531 73.265625 -38.25 C 72.703125 -36.738281 72.132812 -35.257812 71.5625 -33.8125 C 71 -32.363281 70.71875 -30.753906 70.71875 -28.984375 C 70.707031 -25.316406 72.429688 -23.484375 75.890625 -23.484375 C 77.515625 -23.472656 78.875 -23.976562 79.96875 -25 C 81.0625 -26.019531 82.144531 -27.304688 83.21875 -28.859375 C 83.78125 -29.703125 84.519531 -30 85.4375 -29.75 C 86.351562 -29.5 87.109375 -29.019531 87.703125 -28.3125 C 88.296875 -27.613281 88.382812 -26.910156 87.96875 -26.203125 C 87.257812 -25.078125 86.40625 -23.4375 85.40625 -21.28125 C 84.414062 -19.132812 83.226562 -16.84375 81.84375 -14.40625 C 80.46875 -11.96875 78.859375 -9.640625 77.015625 -7.421875 C 75.179688 -5.203125 73.113281 -3.390625 70.8125 -1.984375 C 68.507812 -0.578125 65.914062 0.125 63.03125 0.125 C 59.632812 0.113281 57.269531 -1 55.9375 -3.21875 C 54.601562 -5.445312 53.9375 -8.082031 53.9375 -11.125 C 53.945312 -13.800781 54.320312 -16.359375 55.0625 -18.796875 C 55.8125 -21.234375 56.554688 -23.457031 57.296875 -25.46875 C 58.046875 -27.476562 58.421875 -29.191406 58.421875 -30.609375 C 58.421875 -31.804688 58.050781 -32.722656 57.3125 -33.359375 C 56.570312 -33.992188 55.601562 -34.3125 54.40625 -34.3125 C 52.351562 -34.320312 50.460938 -33.476562 48.734375 -31.78125 C 47.003906 -30.09375 45.601562 -27.976562 44.53125 -25.4375 C 43.46875 -22.90625 42.929688 -20.296875 42.921875 -17.609375 C 42.921875 -16.054688 43.046875 -14.851562 43.296875 -14 C 43.546875 -13.15625 43.664062 -11.957031 43.65625 -10.40625 C 43.65625 -8.925781 43.421875 -7.390625 42.953125 -5.796875 C 42.492188 -4.210938 41.59375 -2.875 40.25 -1.78125 C 38.90625 -0.6875 36.894531 -0.144531 34.21875 -0.15625 C 31.8125 -0.15625 29.796875 -0.828125 28.171875 -2.171875 C 26.554688 -3.515625 25.75 -5.914062 25.75 -9.375 C 25.757812 -12.0625 26.207031 -14.632812 27.09375 -17.09375 C 27.988281 -19.5625 28.875 -21.890625 29.75 -24.078125 C 30.632812 -26.273438 31.082031 -28.253906 31.09375 -30.015625 C 31.09375 -31.429688 30.722656 -32.472656 29.984375 -33.140625 C 29.242188 -33.816406 28.273438 -34.160156 27.078125 -34.171875 C 25.023438 -34.171875 23.132812 -33.304688 21.40625 -31.578125 C 19.675781 -29.847656 18.28125 -27.609375 17.21875 -24.859375 C 16.15625 -22.109375 15.617188 -19.144531 15.609375 -15.96875 L 15.59375 -11.203125 C 15.59375 -9.429688 15.375 -7.679688 14.9375 -5.953125 C 14.507812 -4.222656 13.660156 -2.796875 12.390625 -1.671875 C 11.117188 -0.546875 9.210938 0.015625 6.671875 0.015625 Z M 6.671875 0.015625 "/></g></g></g><g fill="#ffffff" fill-opacity="1"><g transform="translate(133.425226, 89.589186)"><g><path d="M 54.1875 -28.90625 C 54.613281 -29.539062 55.285156 -29.769531 56.203125 -29.59375 C 57.117188 -29.425781 57.910156 -29.039062 58.578125 -28.4375 C 59.242188 -27.832031 59.363281 -27.109375 58.9375 -26.265625 C 57.945312 -24.148438 56.65625 -21.960938 55.0625 -19.703125 C 53.46875 -17.441406 51.484375 -15.550781 49.109375 -14.03125 C 46.742188 -12.519531 43.832031 -11.769531 40.375 -11.78125 L 39.734375 -11.78125 C 37.265625 -8.1875 34.382812 -5.316406 31.09375 -3.171875 C 27.800781 -1.023438 24.460938 0.046875 21.078125 0.046875 C 18.046875 0.0351562 15.5625 -0.890625 13.625 -2.734375 C 11.6875 -4.578125 11.066406 -7.613281 11.765625 -11.84375 C 11.992188 -13.03125 11.628906 -13.660156 10.671875 -13.734375 C 9.722656 -13.816406 9.101562 -13.1875 8.8125 -11.84375 C 8.03125 -7.957031 7.226562 -4.070312 6.40625 -0.1875 C 5.582031 3.6875 4.65625 7.242188 3.625 10.484375 C 2.601562 13.734375 1.414062 16.328125 0.0625 18.265625 C -1.28125 20.210938 -2.90625 21.179688 -4.8125 21.171875 C -7.425781 21.171875 -9.3125 20.53125 -10.46875 19.25 C -11.632812 17.976562 -12.21875 16.175781 -12.21875 13.84375 C -12.207031 10.59375 -11.15625 6.359375 -9.0625 1.140625 C -6.96875 -4.078125 -4.570312 -10.140625 -1.875 -17.046875 C -1.164062 -18.890625 -0.441406 -20.816406 0.296875 -22.828125 C 1.046875 -24.835938 1.78125 -26.898438 2.5 -29.015625 C 4.207031 -34.097656 5.628906 -38.207031 6.765625 -41.34375 C 7.898438 -44.488281 8.90625 -46.890625 9.78125 -48.546875 C 10.664062 -50.203125 11.566406 -51.347656 12.484375 -51.984375 C 13.410156 -52.617188 14.546875 -52.9375 15.890625 -52.9375 C 17.722656 -52.9375 18.921875 -52.578125 19.484375 -51.859375 C 20.046875 -51.148438 20.253906 -50.300781 20.109375 -49.3125 C 19.972656 -48.539062 20.289062 -48.03125 21.0625 -47.78125 C 21.84375 -47.53125 22.65625 -47.828125 23.5 -48.671875 C 25.332031 -50.515625 27.117188 -51.679688 28.859375 -52.171875 C 30.597656 -52.660156 32.28125 -52.90625 33.90625 -52.90625 C 38.0625 -52.894531 41.410156 -51.453125 43.953125 -48.578125 C 46.492188 -45.710938 47.757812 -41.773438 47.75 -36.765625 C 47.738281 -34.503906 47.550781 -32.28125 47.1875 -30.09375 C 46.832031 -27.90625 46.335938 -25.785156 45.703125 -23.734375 C 47.253906 -23.734375 48.734375 -24.132812 50.140625 -24.9375 C 51.554688 -25.75 52.90625 -27.070312 54.1875 -28.90625 Z M 23.140625 -21.875 C 24.898438 -21.875 26.453125 -22.398438 27.796875 -23.453125 C 29.140625 -24.515625 30.203125 -25.800781 30.984375 -27.3125 C 31.765625 -28.832031 32.15625 -30.332031 32.15625 -31.8125 C 32.15625 -33.375 31.695312 -34.703125 30.78125 -35.796875 C 29.875 -36.890625 28.394531 -37.441406 26.34375 -37.453125 C 24.644531 -37.453125 23.140625 -36.957031 21.828125 -35.96875 C 20.523438 -34.988281 19.5 -33.738281 18.75 -32.21875 C 18.007812 -30.695312 17.632812 -29.160156 17.625 -27.609375 C 17.625 -26.054688 18.046875 -24.710938 18.890625 -23.578125 C 19.742188 -22.441406 21.160156 -21.875 23.140625 -21.875 Z M 23.140625 -21.875 "/></g></g></g><g fill="#ffffff" fill-opacity="1"><g transform="translate(185.111151, 89.690279)"><g><path d="M 55.453125 -28.90625 C 56.023438 -29.757812 56.769531 -30.0625 57.6875 -29.8125 C 58.601562 -29.5625 59.359375 -29.082031 59.953125 -28.375 C 60.546875 -27.664062 60.628906 -26.957031 60.203125 -26.25 C 59.503906 -25.132812 58.65625 -23.5 57.65625 -21.34375 C 56.664062 -19.1875 55.476562 -16.890625 54.09375 -14.453125 C 52.707031 -12.015625 51.097656 -9.6875 49.265625 -7.46875 C 47.429688 -5.25 45.363281 -3.4375 43.0625 -2.03125 C 40.757812 -0.625 38.160156 0.0703125 35.265625 0.0625 C 29.191406 0.0507812 26.160156 -3.800781 26.171875 -11.5 C 26.179688 -12.84375 26.296875 -14.289062 26.515625 -15.84375 C 25.378906 -13.375 23.992188 -10.921875 22.359375 -8.484375 C 20.734375 -6.054688 18.859375 -4.046875 16.734375 -2.453125 C 14.617188 -0.867188 12.179688 -0.0820312 9.421875 -0.09375 C 6.597656 -0.09375 4.34375 -1.117188 2.65625 -3.171875 C 0.96875 -5.222656 0.128906 -8.398438 0.140625 -12.703125 C 0.140625 -14.328125 0.265625 -16.585938 0.515625 -19.484375 C 0.765625 -22.378906 1.425781 -25.554688 2.5 -29.015625 C 4.976562 -36.773438 7.472656 -42.703125 9.984375 -46.796875 C 12.503906 -50.890625 15.25 -52.9375 18.21875 -52.9375 C 20.40625 -52.925781 21.492188 -51.503906 21.484375 -48.671875 C 21.484375 -46.410156 21.070312 -44.117188 20.25 -41.796875 C 19.4375 -39.472656 18.640625 -37.195312 17.859375 -34.96875 C 17.078125 -32.75 16.6875 -30.582031 16.6875 -28.46875 C 16.675781 -26.976562 16.972656 -25.804688 17.578125 -24.953125 C 18.179688 -24.109375 19.363281 -23.679688 21.125 -23.671875 C 23.03125 -23.671875 24.757812 -24.25 26.3125 -25.40625 C 27.863281 -26.570312 29.101562 -28.460938 30.03125 -31.078125 L 30.140625 -31.5 C 32.335938 -38.414062 34.570312 -43.707031 36.84375 -47.375 C 39.113281 -51.050781 41.59375 -52.882812 44.28125 -52.875 C 45.34375 -52.875 46.148438 -52.550781 46.703125 -51.90625 C 47.265625 -51.269531 47.546875 -50.175781 47.546875 -48.625 C 47.546875 -46.65625 47.132812 -44.519531 46.3125 -42.21875 C 45.5 -39.925781 44.703125 -37.648438 43.921875 -35.390625 C 43.140625 -33.140625 42.75 -31.132812 42.75 -29.375 C 42.738281 -27.394531 43.28125 -25.925781 44.375 -24.96875 C 45.46875 -24.007812 46.722656 -23.53125 48.140625 -23.53125 C 49.765625 -23.53125 51.125 -24.035156 52.21875 -25.046875 C 53.3125 -26.066406 54.390625 -27.351562 55.453125 -28.90625 Z M 55.453125 -28.90625 "/></g></g></g><g fill="#ffffff" fill-opacity="1"><g transform="translate(238.068031, 89.793858)"><g><path d="M 9 0.015625 C 5.257812 0.00390625 2.648438 -1.039062 1.171875 -3.125 C -0.304688 -5.207031 -1.046875 -7.800781 -1.046875 -10.90625 C -1.035156 -13.59375 -0.691406 -16.523438 -0.015625 -19.703125 C 0.660156 -22.878906 1.535156 -25.984375 2.609375 -29.015625 C 6.222656 -39.316406 9.289062 -47.957031 11.8125 -54.9375 C 14.332031 -61.925781 16.757812 -67.203125 19.09375 -70.765625 C 21.4375 -74.328125 24.019531 -76.109375 26.84375 -76.109375 C 29.03125 -76.097656 30.40625 -75.257812 30.96875 -73.59375 C 31.53125 -71.9375 30.992188 -69.453125 29.359375 -66.140625 C 26.453125 -60.285156 23.953125 -54.867188 21.859375 -49.890625 C 19.765625 -44.921875 18.113281 -40.210938 16.90625 -35.765625 C 16.34375 -33.722656 15.929688 -31.765625 15.671875 -29.890625 C 15.421875 -28.015625 15.648438 -26.492188 16.359375 -25.328125 C 17.066406 -24.171875 18.476562 -23.585938 20.59375 -23.578125 C 22.425781 -23.578125 24.03125 -24.050781 25.40625 -25 C 26.789062 -25.957031 28.050781 -27.273438 29.1875 -28.953125 C 29.75 -29.804688 30.488281 -30.109375 31.40625 -29.859375 C 32.332031 -29.609375 33.09375 -29.128906 33.6875 -28.421875 C 34.28125 -27.722656 34.363281 -27.019531 33.9375 -26.3125 C 33.226562 -25.1875 32.378906 -23.546875 31.390625 -21.390625 C 30.398438 -19.234375 29.210938 -16.9375 27.828125 -14.5 C 26.441406 -12.070312 24.832031 -9.742188 23 -7.515625 C 21.164062 -5.296875 19.097656 -3.484375 16.796875 -2.078125 C 14.492188 -0.671875 11.894531 0.0234375 9 0.015625 Z M 9 0.015625 "/></g></g></g><g fill="#ffffff" fill-opacity="1"><g transform="translate(264.758301, 89.846062)"><g><path d="M 43.59375 -28.9375 C 44.15625 -29.78125 44.878906 -30.078125 45.765625 -29.828125 C 46.648438 -29.578125 47.390625 -29.097656 47.984375 -28.390625 C 48.578125 -27.691406 48.695312 -26.988281 48.34375 -26.28125 C 47.78125 -25.082031 46.945312 -23.40625 45.84375 -21.25 C 44.75 -19.09375 43.367188 -16.796875 41.703125 -14.359375 C 40.035156 -11.929688 38.019531 -9.625 35.65625 -7.4375 C 33.289062 -5.257812 30.566406 -3.484375 27.484375 -2.109375 C 24.410156 -0.742188 20.898438 -0.0664062 16.953125 -0.078125 C 12.285156 -0.0859375 8.59375 -1.082031 5.875 -3.0625 C 3.164062 -5.039062 1.316406 -7.546875 0.328125 -10.578125 C -0.648438 -13.617188 -0.921875 -16.800781 -0.484375 -20.125 C -0.0546875 -23.445312 0.9375 -26.410156 2.5 -29.015625 L 2.921875 -29.65625 C 4.828125 -32.1875 6.71875 -34.953125 8.59375 -37.953125 C 10.46875 -40.953125 12.394531 -43.773438 14.375 -46.421875 C 16.363281 -49.066406 18.421875 -51.25 20.546875 -52.96875 C 22.671875 -54.695312 24.863281 -55.5625 27.125 -55.5625 C 30.4375 -55.550781 32.882812 -54.765625 34.46875 -53.203125 C 36.050781 -51.648438 36.8125 -50.023438 36.75 -48.328125 C 36.75 -47.484375 36.375 -46.78125 35.625 -46.21875 C 34.882812 -45.65625 34.003906 -45.144531 32.984375 -44.6875 C 31.960938 -44.226562 31.054688 -43.660156 30.265625 -42.984375 C 29.484375 -42.316406 29.09375 -41.457031 29.09375 -40.40625 C 29.09375 -39.769531 29.582031 -38.5 30.5625 -36.59375 C 31.550781 -34.6875 32.609375 -32.546875 33.734375 -30.171875 C 34.859375 -27.804688 35.632812 -25.523438 36.0625 -23.328125 C 37.6875 -23.398438 39.078125 -23.960938 40.234375 -25.015625 C 41.398438 -26.078125 42.519531 -27.382812 43.59375 -28.9375 Z M 13.1875 -21.890625 C 15.507812 -21.890625 17.304688 -22.628906 18.578125 -24.109375 C 19.847656 -25.585938 20.488281 -27.421875 20.5 -29.609375 C 20.5 -30.878906 20.304688 -32.1875 19.921875 -33.53125 C 19.535156 -34.882812 18.957031 -36.265625 18.1875 -37.671875 C 17.476562 -39.085938 16.632812 -39.085938 15.65625 -37.671875 C 14.300781 -35.703125 12.863281 -33.710938 11.34375 -31.703125 C 9.820312 -29.691406 8.457031 -27.910156 7.25 -26.359375 C 7.25 -25.085938 7.796875 -24.023438 8.890625 -23.171875 C 9.984375 -22.328125 11.414062 -21.898438 13.1875 -21.890625 Z M 13.1875 -21.890625 "/></g></g></g><g fill="#ffffff" fill-opacity="1"><g transform="translate(305.746928, 89.926231)"><g><path d="M 11.234375 0.015625 C 7.628906 0.015625 4.910156 -1.46875 3.078125 -4.4375 C 1.242188 -7.40625 0.332031 -11.257812 0.34375 -16 C 0.351562 -18.957031 0.734375 -22.113281 1.484375 -25.46875 C 2.234375 -28.820312 3.332031 -32.117188 4.78125 -35.359375 C 6.238281 -38.609375 8.0625 -41.550781 10.25 -44.1875 C 12.445312 -46.832031 14.992188 -48.945312 17.890625 -50.53125 C 20.796875 -52.125 24.082031 -52.921875 27.75 -52.921875 C 29.875 -52.910156 31.515625 -52.707031 32.671875 -52.3125 C 33.828125 -51.925781 34.707031 -51.445312 35.3125 -50.875 C 35.914062 -50.300781 36.425781 -49.820312 36.84375 -49.4375 C 37.269531 -49.050781 37.835938 -48.859375 38.546875 -48.859375 C 39.742188 -48.859375 40.710938 -49.191406 41.453125 -49.859375 C 42.191406 -50.535156 43.023438 -51.207031 43.953125 -51.875 C 44.878906 -52.539062 46.15625 -52.875 47.78125 -52.875 C 49.1875 -52.875 50.148438 -52.519531 50.671875 -51.8125 C 51.203125 -51.101562 51.46875 -50.148438 51.46875 -48.953125 C 51.46875 -46.972656 50.914062 -45.007812 49.8125 -43.0625 C 48.71875 -41.125 47.5625 -38.601562 46.34375 -35.5 C 44.582031 -31.625 43.925781 -28.660156 44.375 -26.609375 C 44.832031 -24.554688 46.226562 -23.53125 48.5625 -23.53125 C 50.394531 -23.53125 51.984375 -24.003906 53.328125 -24.953125 C 54.671875 -25.898438 55.875 -27.21875 56.9375 -28.90625 C 57.507812 -29.757812 58.234375 -30.054688 59.109375 -29.796875 C 59.992188 -29.546875 60.734375 -29.066406 61.328125 -28.359375 C 61.921875 -27.660156 62.039062 -26.957031 61.6875 -26.25 C 60.414062 -23.789062 59.050781 -21.054688 57.59375 -18.046875 C 56.144531 -15.046875 54.535156 -12.171875 52.765625 -9.421875 C 50.992188 -6.679688 48.976562 -4.410156 46.71875 -2.609375 C 44.457031 -0.816406 41.84375 0.078125 38.875 0.078125 C 35.195312 0.0664062 32.601562 -1.414062 31.09375 -4.375 C 29.582031 -7.34375 29.148438 -11.019531 29.796875 -15.40625 L 29.375 -15.40625 C 27.238281 -11.101562 24.613281 -7.453125 21.5 -4.453125 C 18.394531 -1.460938 14.972656 0.0234375 11.234375 0.015625 Z M 21.859375 -21.875 C 23.703125 -21.875 25.3125 -22.398438 26.6875 -23.453125 C 28.0625 -24.515625 29.140625 -25.800781 29.921875 -27.3125 C 30.703125 -28.832031 31.09375 -30.332031 31.09375 -31.8125 C 31.09375 -33.582031 30.597656 -34.960938 29.609375 -35.953125 C 28.628906 -36.941406 27.296875 -37.441406 25.609375 -37.453125 C 23.765625 -37.453125 22.171875 -36.957031 20.828125 -35.96875 C 19.484375 -34.988281 18.441406 -33.738281 17.703125 -32.21875 C 16.960938 -30.695312 16.585938 -29.160156 16.578125 -27.609375 C 16.578125 -25.847656 17.050781 -24.453125 18 -23.421875 C 18.957031 -22.398438 20.242188 -21.882812 21.859375 -21.875 Z M 21.859375 -21.875 "/></g></g></g><g fill="#ffffff" fill-opacity="1"><g transform="translate(137.496697, 112.018236)"><g><path d="M 2.125 0 C 1.4375 0 0.921875 -0.28125 0.578125 -0.84375 C 0.234375 -1.40625 0.0625 -2.128906 0.0625 -3.015625 C 0.0625 -3.578125 0.132812 -4.175781 0.28125 -4.8125 C 0.425781 -5.445312 0.632812 -6.066406 0.90625 -6.671875 C 1.175781 -7.285156 1.519531 -7.84375 1.9375 -8.34375 C 2.351562 -8.84375 2.832031 -9.238281 3.375 -9.53125 C 3.925781 -9.832031 4.546875 -9.984375 5.234375 -9.984375 C 5.628906 -9.984375 5.9375 -9.945312 6.15625 -9.875 C 6.382812 -9.800781 6.550781 -9.707031 6.65625 -9.59375 C 6.769531 -9.488281 6.867188 -9.398438 6.953125 -9.328125 C 7.035156 -9.253906 7.144531 -9.21875 7.28125 -9.21875 C 7.5 -9.21875 7.675781 -9.28125 7.8125 -9.40625 C 7.957031 -9.539062 8.117188 -9.671875 8.296875 -9.796875 C 8.472656 -9.921875 8.710938 -9.984375 9.015625 -9.984375 C 9.285156 -9.984375 9.46875 -9.914062 9.5625 -9.78125 C 9.664062 -9.644531 9.71875 -9.46875 9.71875 -9.25 C 9.71875 -8.875 9.613281 -8.5 9.40625 -8.125 C 9.195312 -7.757812 8.976562 -7.285156 8.75 -6.703125 C 8.414062 -5.972656 8.289062 -5.410156 8.375 -5.015625 C 8.46875 -4.628906 8.734375 -4.4375 9.171875 -4.4375 C 9.523438 -4.4375 9.828125 -4.523438 10.078125 -4.703125 C 10.328125 -4.890625 10.550781 -5.144531 10.75 -5.46875 C 10.863281 -5.625 11.003906 -5.675781 11.171875 -5.625 C 11.335938 -5.582031 11.472656 -5.492188 11.578125 -5.359375 C 11.691406 -5.234375 11.71875 -5.101562 11.65625 -4.96875 C 11.414062 -4.5 11.15625 -3.976562 10.875 -3.40625 C 10.59375 -2.84375 10.285156 -2.300781 9.953125 -1.78125 C 9.617188 -1.257812 9.238281 -0.828125 8.8125 -0.484375 C 8.394531 -0.148438 7.90625 0.015625 7.34375 0.015625 C 6.644531 0.015625 6.148438 -0.265625 5.859375 -0.828125 C 5.578125 -1.390625 5.5 -2.082031 5.625 -2.90625 L 5.546875 -2.90625 C 5.140625 -2.09375 4.644531 -1.40625 4.0625 -0.84375 C 3.476562 -0.28125 2.832031 0 2.125 0 Z M 4.140625 -4.125 C 4.484375 -4.125 4.785156 -4.222656 5.046875 -4.421875 C 5.304688 -4.617188 5.507812 -4.859375 5.65625 -5.140625 C 5.800781 -5.429688 5.875 -5.71875 5.875 -6 C 5.875 -6.332031 5.78125 -6.59375 5.59375 -6.78125 C 5.40625 -6.96875 5.148438 -7.0625 4.828125 -7.0625 C 4.484375 -7.0625 4.1875 -6.96875 3.9375 -6.78125 C 3.6875 -6.601562 3.488281 -6.367188 3.34375 -6.078125 C 3.207031 -5.796875 3.140625 -5.507812 3.140625 -5.21875 C 3.140625 -4.882812 3.226562 -4.617188 3.40625 -4.421875 C 3.582031 -4.234375 3.828125 -4.132812 4.140625 -4.125 Z M 4.140625 -4.125 "/></g></g></g><g fill="#ffffff" fill-opacity="1"><g transform="translate(147.772624, 112.038335)"><g><path d="M 10.578125 -5.46875 C 10.660156 -5.582031 10.785156 -5.625 10.953125 -5.59375 C 11.128906 -5.5625 11.28125 -5.488281 11.40625 -5.375 C 11.53125 -5.257812 11.550781 -5.125 11.46875 -4.96875 C 11.175781 -4.351562 10.890625 -3.75 10.609375 -3.15625 C 10.335938 -2.570312 10.046875 -2.039062 9.734375 -1.5625 C 9.429688 -1.082031 9.09375 -0.695312 8.71875 -0.40625 C 8.34375 -0.125 7.914062 0.015625 7.4375 0.015625 C 7.144531 0.015625 6.910156 -0.128906 6.734375 -0.421875 C 6.304688 0.953125 5.847656 2.050781 5.359375 2.875 C 4.867188 3.695312 4.320312 4.289062 3.71875 4.65625 C 3.125 5.03125 2.445312 5.21875 1.6875 5.21875 C 0.632812 5.21875 -0.175781 4.941406 -0.75 4.390625 C -1.332031 3.835938 -1.625 3.082031 -1.625 2.125 C -1.625 1.613281 -1.550781 1.175781 -1.40625 0.8125 C -1.257812 0.445312 -1.09375 0.160156 -0.90625 -0.046875 C -0.71875 -0.265625 -0.550781 -0.40625 -0.40625 -0.46875 C -0.257812 -0.53125 -0.175781 -0.507812 -0.15625 -0.40625 C -0.101562 0.09375 0.113281 0.492188 0.5 0.796875 C 0.894531 1.109375 1.425781 1.269531 2.09375 1.28125 C 2.5625 1.28125 3.003906 1.164062 3.421875 0.9375 C 3.835938 0.71875 4.207031 0.425781 4.53125 0.0625 C 4.851562 -0.300781 5.109375 -0.703125 5.296875 -1.140625 C 5.484375 -1.578125 5.578125 -2.019531 5.578125 -2.46875 C 5.578125 -2.632812 5.507812 -2.710938 5.375 -2.703125 C 5.25 -2.703125 5.140625 -2.601562 5.046875 -2.40625 C 4.773438 -1.707031 4.378906 -1.160156 3.859375 -0.765625 C 3.347656 -0.378906 2.84375 -0.1875 2.34375 -0.1875 C 1.644531 -0.1875 1.085938 -0.441406 0.671875 -0.953125 C 0.265625 -1.460938 0.0625 -2.09375 0.0625 -2.84375 C 0.0625 -3.582031 0.171875 -4.363281 0.390625 -5.1875 C 0.609375 -6.019531 0.929688 -6.800781 1.359375 -7.53125 C 1.796875 -8.257812 2.335938 -8.851562 2.984375 -9.3125 C 3.628906 -9.769531 4.378906 -9.992188 5.234375 -9.984375 C 5.628906 -9.984375 5.9375 -9.945312 6.15625 -9.875 C 6.382812 -9.800781 6.550781 -9.707031 6.65625 -9.59375 C 6.769531 -9.488281 6.867188 -9.398438 6.953125 -9.328125 C 7.035156 -9.253906 7.144531 -9.21875 7.28125 -9.21875 C 7.5 -9.21875 7.675781 -9.28125 7.8125 -9.40625 C 7.957031 -9.539062 8.117188 -9.671875 8.296875 -9.796875 C 8.472656 -9.921875 8.710938 -9.984375 9.015625 -9.984375 C 9.285156 -9.984375 9.46875 -9.914062 9.5625 -9.78125 C 9.664062 -9.644531 9.71875 -9.46875 9.71875 -9.25 C 9.71875 -9.007812 9.640625 -8.722656 9.484375 -8.390625 C 9.328125 -8.066406 9.125 -7.644531 8.875 -7.125 C 8.632812 -6.613281 8.375 -5.953125 8.09375 -5.140625 C 7.957031 -4.609375 7.953125 -4.238281 8.078125 -4.03125 C 8.210938 -3.820312 8.394531 -3.71875 8.625 -3.71875 C 8.925781 -3.71875 9.253906 -3.90625 9.609375 -4.28125 C 9.960938 -4.65625 10.285156 -5.050781 10.578125 -5.46875 Z M 4.171875 -4.125 C 4.503906 -4.125 4.796875 -4.222656 5.046875 -4.421875 C 5.304688 -4.617188 5.507812 -4.859375 5.65625 -5.140625 C 5.800781 -5.429688 5.875 -5.71875 5.875 -6 C 5.875 -6.289062 5.785156 -6.539062 5.609375 -6.75 C 5.441406 -6.957031 5.164062 -7.0625 4.78125 -7.0625 C 4.457031 -7.0625 4.171875 -6.96875 3.921875 -6.78125 C 3.679688 -6.601562 3.488281 -6.367188 3.34375 -6.078125 C 3.207031 -5.796875 3.140625 -5.507812 3.140625 -5.21875 C 3.140625 -4.925781 3.21875 -4.671875 3.375 -4.453125 C 3.53125 -4.242188 3.796875 -4.132812 4.171875 -4.125 Z M 4.171875 -4.125 "/></g></g></g><g fill="#ffffff" fill-opacity="1"><g transform="translate(157.868616, 112.058082)"><g><path d="M 3.765625 0 C 2.960938 0 2.300781 -0.175781 1.78125 -0.53125 C 1.269531 -0.894531 0.890625 -1.375 0.640625 -1.96875 C 0.398438 -2.5625 0.285156 -3.210938 0.296875 -3.921875 C 0.304688 -4.640625 0.429688 -5.351562 0.671875 -6.0625 C 0.910156 -6.78125 1.253906 -7.4375 1.703125 -8.03125 C 2.160156 -8.625 2.710938 -9.097656 3.359375 -9.453125 C 4.003906 -9.804688 4.738281 -9.984375 5.5625 -9.984375 C 6.1875 -9.984375 6.691406 -9.863281 7.078125 -9.625 C 7.472656 -9.394531 7.765625 -9.085938 7.953125 -8.703125 C 8.140625 -8.316406 8.234375 -7.90625 8.234375 -7.46875 C 8.234375 -6.988281 8.097656 -6.503906 7.828125 -6.015625 C 7.566406 -5.535156 7.195312 -5.140625 6.71875 -4.828125 C 6.238281 -4.515625 5.671875 -4.359375 5.015625 -4.359375 C 4.734375 -4.359375 4.457031 -4.378906 4.1875 -4.421875 C 3.925781 -4.472656 3.679688 -4.566406 3.453125 -4.703125 C 3.390625 -4.742188 3.316406 -4.742188 3.234375 -4.703125 C 3.148438 -4.671875 3.109375 -4.585938 3.109375 -4.453125 C 3.097656 -4.109375 3.296875 -3.84375 3.703125 -3.65625 C 4.109375 -3.476562 4.601562 -3.390625 5.1875 -3.390625 C 5.863281 -3.390625 6.566406 -3.5625 7.296875 -3.90625 C 8.023438 -4.25 8.617188 -4.769531 9.078125 -5.46875 C 9.179688 -5.625 9.316406 -5.675781 9.484375 -5.625 C 9.660156 -5.582031 9.804688 -5.492188 9.921875 -5.359375 C 10.035156 -5.234375 10.050781 -5.101562 9.96875 -4.96875 C 9.082031 -3.34375 8.113281 -2.101562 7.0625 -1.25 C 6.019531 -0.40625 4.921875 0.0078125 3.765625 0 Z M 4.5 -5.859375 C 4.882812 -5.859375 5.1875 -5.984375 5.40625 -6.234375 C 5.625 -6.484375 5.734375 -6.734375 5.734375 -6.984375 C 5.734375 -7.210938 5.65625 -7.40625 5.5 -7.5625 C 5.351562 -7.71875 5.125 -7.796875 4.8125 -7.796875 C 4.425781 -7.796875 4.117188 -7.675781 3.890625 -7.4375 C 3.671875 -7.207031 3.5625 -6.960938 3.5625 -6.703125 C 3.5625 -6.484375 3.632812 -6.285156 3.78125 -6.109375 C 3.9375 -5.941406 4.175781 -5.859375 4.5 -5.859375 Z M 4.5 -5.859375 "/></g></g></g><g fill="#ffffff" fill-opacity="1"><g transform="translate(166.465207, 112.074896)"><g><path d="M 1.265625 0 C 0.796875 0 0.429688 -0.140625 0.171875 -0.421875 C -0.078125 -0.703125 -0.203125 -1.046875 -0.203125 -1.453125 C -0.203125 -1.921875 -0.144531 -2.503906 -0.03125 -3.203125 C 0.0820312 -3.910156 0.25 -4.671875 0.46875 -5.484375 C 0.695312 -6.265625 0.945312 -7 1.21875 -7.6875 C 1.5 -8.375 1.78125 -8.929688 2.0625 -9.359375 C 2.351562 -9.785156 2.625 -10 2.875 -10 C 3.144531 -10 3.320312 -9.921875 3.40625 -9.765625 C 3.488281 -9.617188 3.53125 -9.441406 3.53125 -9.234375 C 3.53125 -8.847656 3.625 -8.601562 3.8125 -8.5 C 4 -8.40625 4.253906 -8.519531 4.578125 -8.84375 C 4.953125 -9.207031 5.335938 -9.488281 5.734375 -9.6875 C 6.128906 -9.882812 6.550781 -9.984375 7 -9.984375 C 7.613281 -9.984375 8.066406 -9.800781 8.359375 -9.4375 C 8.648438 -9.082031 8.796875 -8.648438 8.796875 -8.140625 C 8.796875 -7.796875 8.738281 -7.476562 8.625 -7.1875 C 8.519531 -6.90625 8.414062 -6.625 8.3125 -6.34375 C 8.207031 -6.070312 8.15625 -5.769531 8.15625 -5.4375 C 8.15625 -4.769531 8.472656 -4.4375 9.109375 -4.4375 C 9.421875 -4.4375 9.679688 -4.535156 9.890625 -4.734375 C 10.097656 -4.929688 10.300781 -5.175781 10.5 -5.46875 C 10.601562 -5.625 10.738281 -5.675781 10.90625 -5.625 C 11.082031 -5.582031 11.226562 -5.492188 11.34375 -5.359375 C 11.457031 -5.234375 11.472656 -5.101562 11.390625 -4.96875 C 11.265625 -4.75 11.101562 -4.4375 10.90625 -4.03125 C 10.71875 -3.625 10.492188 -3.191406 10.234375 -2.734375 C 9.972656 -2.273438 9.664062 -1.832031 9.3125 -1.40625 C 8.96875 -0.988281 8.578125 -0.644531 8.140625 -0.375 C 7.710938 -0.113281 7.226562 0.015625 6.6875 0.015625 C 6.050781 0.015625 5.609375 -0.1875 5.359375 -0.59375 C 5.109375 -1.007812 4.984375 -1.5 4.984375 -2.0625 C 4.984375 -2.570312 5.054688 -3.054688 5.203125 -3.515625 C 5.347656 -3.972656 5.488281 -4.390625 5.625 -4.765625 C 5.757812 -5.148438 5.828125 -5.476562 5.828125 -5.75 C 5.828125 -5.96875 5.757812 -6.132812 5.625 -6.25 C 5.488281 -6.375 5.304688 -6.4375 5.078125 -6.4375 C 4.691406 -6.4375 4.332031 -6.273438 4 -5.953125 C 3.675781 -5.640625 3.410156 -5.222656 3.203125 -4.703125 C 3.003906 -4.179688 2.90625 -3.617188 2.90625 -3.015625 L 2.90625 -2.125 C 2.90625 -1.789062 2.863281 -1.457031 2.78125 -1.125 C 2.695312 -0.800781 2.535156 -0.53125 2.296875 -0.3125 C 2.066406 -0.101562 1.722656 0 1.265625 0 Z M 1.265625 0 "/></g></g></g><g fill="#ffffff" fill-opacity="1"><g transform="translate(176.481239, 112.094486)"><g><path d="M 3.515625 0 C 2.710938 0 2.054688 -0.175781 1.546875 -0.53125 C 1.046875 -0.894531 0.671875 -1.375 0.421875 -1.96875 C 0.179688 -2.5625 0.0625 -3.207031 0.0625 -3.90625 C 0.0703125 -4.601562 0.191406 -5.304688 0.421875 -6.015625 C 0.660156 -6.734375 1 -7.394531 1.4375 -8 C 1.875 -8.601562 2.40625 -9.085938 3.03125 -9.453125 C 3.65625 -9.816406 4.363281 -9.992188 5.15625 -9.984375 C 6.113281 -9.984375 6.8125 -9.734375 7.25 -9.234375 C 7.695312 -8.742188 7.921875 -8.175781 7.921875 -7.53125 C 7.921875 -6.957031 7.804688 -6.492188 7.578125 -6.140625 C 7.359375 -5.785156 7.09375 -5.523438 6.78125 -5.359375 C 6.46875 -5.203125 6.164062 -5.125 5.875 -5.125 C 5.53125 -5.125 5.269531 -5.179688 5.09375 -5.296875 C 4.914062 -5.421875 4.828125 -5.550781 4.828125 -5.6875 C 4.828125 -5.800781 4.863281 -5.898438 4.9375 -5.984375 C 5.019531 -6.066406 5.097656 -6.164062 5.171875 -6.28125 C 5.253906 -6.40625 5.296875 -6.585938 5.296875 -6.828125 C 5.296875 -7.015625 5.234375 -7.175781 5.109375 -7.3125 C 4.992188 -7.457031 4.78125 -7.53125 4.46875 -7.53125 C 4.019531 -7.539062 3.671875 -7.347656 3.421875 -6.953125 C 3.179688 -6.554688 3.0625 -6.101562 3.0625 -5.59375 C 3.0625 -5.0625 3.195312 -4.628906 3.46875 -4.296875 C 3.738281 -3.960938 4.097656 -3.734375 4.546875 -3.609375 C 4.992188 -3.484375 5.476562 -3.46875 6 -3.5625 C 6.519531 -3.65625 7.035156 -3.859375 7.546875 -4.171875 C 8.054688 -4.484375 8.5 -4.914062 8.875 -5.46875 C 8.976562 -5.625 9.117188 -5.675781 9.296875 -5.625 C 9.472656 -5.582031 9.613281 -5.492188 9.71875 -5.359375 C 9.832031 -5.234375 9.851562 -5.101562 9.78125 -4.96875 C 8.882812 -3.34375 7.910156 -2.101562 6.859375 -1.25 C 5.804688 -0.40625 4.691406 0.0078125 3.515625 0 Z M 3.515625 0 "/></g></g></g><g fill="#ffffff" fill-opacity="1"><g transform="translate(184.877913, 112.11091)"><g><path d="M 4.03125 -10.796875 C 3.550781 -10.804688 3.140625 -10.914062 2.796875 -11.125 C 2.453125 -11.332031 2.285156 -11.703125 2.296875 -12.234375 C 2.296875 -12.941406 2.488281 -13.425781 2.875 -13.6875 C 3.269531 -13.945312 3.742188 -14.070312 4.296875 -14.0625 C 4.796875 -14.0625 5.222656 -13.945312 5.578125 -13.71875 C 5.929688 -13.5 6.082031 -13.070312 6.03125 -12.4375 C 5.96875 -11.832031 5.75 -11.40625 5.375 -11.15625 C 5 -10.914062 4.550781 -10.796875 4.03125 -10.796875 Z M 1.796875 0 C 1.128906 0 0.65625 -0.238281 0.375 -0.71875 C 0.09375 -1.207031 -0.046875 -1.800781 -0.046875 -2.5 C -0.046875 -2.96875 0 -3.460938 0.09375 -3.984375 C 0.195312 -4.503906 0.320312 -5.003906 0.46875 -5.484375 C 0.9375 -6.929688 1.390625 -8.046875 1.828125 -8.828125 C 2.273438 -9.609375 2.785156 -10 3.359375 -10 C 3.804688 -9.988281 4.03125 -9.679688 4.03125 -9.078125 C 4.03125 -8.679688 3.953125 -8.273438 3.796875 -7.859375 C 3.648438 -7.441406 3.503906 -7.03125 3.359375 -6.625 C 3.210938 -6.21875 3.140625 -5.835938 3.140625 -5.484375 C 3.140625 -5.148438 3.222656 -4.898438 3.390625 -4.734375 C 3.554688 -4.566406 3.769531 -4.476562 4.03125 -4.46875 C 4.34375 -4.46875 4.597656 -4.5625 4.796875 -4.75 C 5.003906 -4.9375 5.210938 -5.175781 5.421875 -5.46875 C 5.523438 -5.625 5.660156 -5.679688 5.828125 -5.640625 C 5.992188 -5.597656 6.132812 -5.507812 6.25 -5.375 C 6.363281 -5.238281 6.382812 -5.109375 6.3125 -4.984375 C 6.175781 -4.773438 6.015625 -4.46875 5.828125 -4.0625 C 5.648438 -3.664062 5.429688 -3.234375 5.171875 -2.765625 C 4.921875 -2.296875 4.628906 -1.851562 4.296875 -1.4375 C 3.972656 -1.019531 3.601562 -0.675781 3.1875 -0.40625 C 2.78125 -0.132812 2.316406 0 1.796875 0 Z M 1.796875 0 "/></g></g></g><g fill="#ffffff" fill-opacity="1"><g transform="translate(189.795967, 112.120529)"><g><path d="M 2.125 0 C 1.4375 0 0.921875 -0.28125 0.578125 -0.84375 C 0.234375 -1.40625 0.0625 -2.128906 0.0625 -3.015625 C 0.0625 -3.578125 0.132812 -4.175781 0.28125 -4.8125 C 0.425781 -5.445312 0.632812 -6.066406 0.90625 -6.671875 C 1.175781 -7.285156 1.519531 -7.84375 1.9375 -8.34375 C 2.351562 -8.84375 2.832031 -9.238281 3.375 -9.53125 C 3.925781 -9.832031 4.546875 -9.984375 5.234375 -9.984375 C 5.628906 -9.984375 5.9375 -9.945312 6.15625 -9.875 C 6.382812 -9.800781 6.550781 -9.707031 6.65625 -9.59375 C 6.769531 -9.488281 6.867188 -9.398438 6.953125 -9.328125 C 7.035156 -9.253906 7.144531 -9.21875 7.28125 -9.21875 C 7.5 -9.21875 7.675781 -9.28125 7.8125 -9.40625 C 7.957031 -9.539062 8.117188 -9.671875 8.296875 -9.796875 C 8.472656 -9.921875 8.710938 -9.984375 9.015625 -9.984375 C 9.285156 -9.984375 9.46875 -9.914062 9.5625 -9.78125 C 9.664062 -9.644531 9.71875 -9.46875 9.71875 -9.25 C 9.71875 -8.875 9.613281 -8.5 9.40625 -8.125 C 9.195312 -7.757812 8.976562 -7.285156 8.75 -6.703125 C 8.414062 -5.972656 8.289062 -5.410156 8.375 -5.015625 C 8.46875 -4.628906 8.734375 -4.4375 9.171875 -4.4375 C 9.523438 -4.4375 9.828125 -4.523438 10.078125 -4.703125 C 10.328125 -4.890625 10.550781 -5.144531 10.75 -5.46875 C 10.863281 -5.625 11.003906 -5.675781 11.171875 -5.625 C 11.335938 -5.582031 11.472656 -5.492188 11.578125 -5.359375 C 11.691406 -5.234375 11.71875 -5.101562 11.65625 -4.96875 C 11.414062 -4.5 11.15625 -3.976562 10.875 -3.40625 C 10.59375 -2.84375 10.285156 -2.300781 9.953125 -1.78125 C 9.617188 -1.257812 9.238281 -0.828125 8.8125 -0.484375 C 8.394531 -0.148438 7.90625 0.015625 7.34375 0.015625 C 6.644531 0.015625 6.148438 -0.265625 5.859375 -0.828125 C 5.578125 -1.390625 5.5 -2.082031 5.625 -2.90625 L 5.546875 -2.90625 C 5.140625 -2.09375 4.644531 -1.40625 4.0625 -0.84375 C 3.476562 -0.28125 2.832031 0 2.125 0 Z M 4.140625 -4.125 C 4.484375 -4.125 4.785156 -4.222656 5.046875 -4.421875 C 5.304688 -4.617188 5.507812 -4.859375 5.65625 -5.140625 C 5.800781 -5.429688 5.875 -5.71875 5.875 -6 C 5.875 -6.332031 5.78125 -6.59375 5.59375 -6.78125 C 5.40625 -6.96875 5.148438 -7.0625 4.828125 -7.0625 C 4.484375 -7.0625 4.1875 -6.96875 3.9375 -6.78125 C 3.6875 -6.601562 3.488281 -6.367188 3.34375 -6.078125 C 3.207031 -5.796875 3.140625 -5.507812 3.140625 -5.21875 C 3.140625 -4.882812 3.226562 -4.617188 3.40625 -4.421875 C 3.582031 -4.234375 3.828125 -4.132812 4.140625 -4.125 Z M 4.140625 -4.125 "/></g></g></g><g fill="#ffffff" fill-opacity="1"><g transform="translate(200.071894, 112.140628)"><g/></g></g><g fill="#ffffff" fill-opacity="1"><g transform="translate(207.269047, 112.154705)"><g><path d="M 2.34375 0 C 1.550781 0 0.972656 -0.269531 0.609375 -0.8125 C 0.242188 -1.363281 0.0625 -2.039062 0.0625 -2.84375 C 0.0625 -3.582031 0.171875 -4.363281 0.390625 -5.1875 C 0.609375 -6.019531 0.929688 -6.800781 1.359375 -7.53125 C 1.796875 -8.257812 2.335938 -8.851562 2.984375 -9.3125 C 3.628906 -9.769531 4.378906 -9.992188 5.234375 -9.984375 C 5.628906 -9.984375 5.9375 -9.9375 6.15625 -9.84375 C 6.382812 -9.75 6.550781 -9.640625 6.65625 -9.515625 C 6.769531 -9.390625 6.867188 -9.273438 6.953125 -9.171875 C 7.035156 -9.078125 7.144531 -9.03125 7.28125 -9.03125 C 7.382812 -9.03125 7.46875 -9.148438 7.53125 -9.390625 C 7.601562 -9.628906 7.703125 -9.984375 7.828125 -10.453125 C 7.960938 -10.929688 8.175781 -11.507812 8.46875 -12.1875 C 8.71875 -12.800781 8.96875 -13.265625 9.21875 -13.578125 C 9.46875 -13.890625 9.703125 -14.097656 9.921875 -14.203125 C 10.148438 -14.304688 10.367188 -14.359375 10.578125 -14.359375 C 10.921875 -14.359375 11.148438 -14.1875 11.265625 -13.84375 C 11.378906 -13.507812 11.300781 -13.054688 11.03125 -12.484375 L 8.75 -6.703125 C 8.414062 -5.972656 8.289062 -5.410156 8.375 -5.015625 C 8.46875 -4.628906 8.734375 -4.4375 9.171875 -4.4375 C 9.523438 -4.4375 9.828125 -4.523438 10.078125 -4.703125 C 10.328125 -4.890625 10.550781 -5.144531 10.75 -5.46875 C 10.863281 -5.625 11.003906 -5.675781 11.171875 -5.625 C 11.335938 -5.582031 11.472656 -5.492188 11.578125 -5.359375 C 11.691406 -5.234375 11.71875 -5.101562 11.65625 -4.96875 C 11.414062 -4.5 11.15625 -3.976562 10.875 -3.40625 C 10.59375 -2.84375 10.285156 -2.300781 9.953125 -1.78125 C 9.617188 -1.257812 9.238281 -0.828125 8.8125 -0.484375 C 8.394531 -0.148438 7.90625 0.015625 7.34375 0.015625 C 6.695312 0.015625 6.21875 -0.265625 5.90625 -0.828125 C 5.601562 -1.390625 5.507812 -2.082031 5.625 -2.90625 L 5.546875 -2.90625 C 5.128906 -2.09375 4.644531 -1.40625 4.09375 -0.84375 C 3.539062 -0.28125 2.957031 0 2.34375 0 Z M 4.171875 -4.125 C 4.503906 -4.125 4.796875 -4.222656 5.046875 -4.421875 C 5.304688 -4.617188 5.507812 -4.859375 5.65625 -5.140625 C 5.800781 -5.429688 5.875 -5.71875 5.875 -6 C 5.875 -6.289062 5.785156 -6.539062 5.609375 -6.75 C 5.441406 -6.957031 5.164062 -7.0625 4.78125 -7.0625 C 4.457031 -7.0625 4.171875 -6.96875 3.921875 -6.78125 C 3.679688 -6.601562 3.488281 -6.367188 3.34375 -6.078125 C 3.207031 -5.796875 3.140625 -5.507812 3.140625 -5.21875 C 3.140625 -4.925781 3.21875 -4.671875 3.375 -4.453125 C 3.53125 -4.242188 3.796875 -4.132812 4.171875 -4.125 Z M 4.171875 -4.125 "/></g></g></g><g fill="#ffffff" fill-opacity="1"><g transform="translate(217.544974, 112.174803)"><g><path d="M 3.765625 0 C 2.960938 0 2.300781 -0.175781 1.78125 -0.53125 C 1.269531 -0.894531 0.890625 -1.375 0.640625 -1.96875 C 0.398438 -2.5625 0.285156 -3.210938 0.296875 -3.921875 C 0.304688 -4.640625 0.429688 -5.351562 0.671875 -6.0625 C 0.910156 -6.78125 1.253906 -7.4375 1.703125 -8.03125 C 2.160156 -8.625 2.710938 -9.097656 3.359375 -9.453125 C 4.003906 -9.804688 4.738281 -9.984375 5.5625 -9.984375 C 6.1875 -9.984375 6.691406 -9.863281 7.078125 -9.625 C 7.472656 -9.394531 7.765625 -9.085938 7.953125 -8.703125 C 8.140625 -8.316406 8.234375 -7.90625 8.234375 -7.46875 C 8.234375 -6.988281 8.097656 -6.503906 7.828125 -6.015625 C 7.566406 -5.535156 7.195312 -5.140625 6.71875 -4.828125 C 6.238281 -4.515625 5.671875 -4.359375 5.015625 -4.359375 C 4.734375 -4.359375 4.457031 -4.378906 4.1875 -4.421875 C 3.925781 -4.472656 3.679688 -4.566406 3.453125 -4.703125 C 3.390625 -4.742188 3.316406 -4.742188 3.234375 -4.703125 C 3.148438 -4.671875 3.109375 -4.585938 3.109375 -4.453125 C 3.097656 -4.109375 3.296875 -3.84375 3.703125 -3.65625 C 4.109375 -3.476562 4.601562 -3.390625 5.1875 -3.390625 C 5.863281 -3.390625 6.566406 -3.5625 7.296875 -3.90625 C 8.023438 -4.25 8.617188 -4.769531 9.078125 -5.46875 C 9.179688 -5.625 9.316406 -5.675781 9.484375 -5.625 C 9.660156 -5.582031 9.804688 -5.492188 9.921875 -5.359375 C 10.035156 -5.234375 10.050781 -5.101562 9.96875 -4.96875 C 9.082031 -3.34375 8.113281 -2.101562 7.0625 -1.25 C 6.019531 -0.40625 4.921875 0.0078125 3.765625 0 Z M 4.5 -5.859375 C 4.882812 -5.859375 5.1875 -5.984375 5.40625 -6.234375 C 5.625 -6.484375 5.734375 -6.734375 5.734375 -6.984375 C 5.734375 -7.210938 5.65625 -7.40625 5.5 -7.5625 C 5.351562 -7.71875 5.125 -7.796875 4.8125 -7.796875 C 4.425781 -7.796875 4.117188 -7.675781 3.890625 -7.4375 C 3.671875 -7.207031 3.5625 -6.960938 3.5625 -6.703125 C 3.5625 -6.484375 3.632812 -6.285156 3.78125 -6.109375 C 3.9375 -5.941406 4.175781 -5.859375 4.5 -5.859375 Z M 4.5 -5.859375 "/></g></g></g><g fill="#ffffff" fill-opacity="1"><g transform="translate(226.141564, 112.191617)"><g/></g></g><g fill="#ffffff" fill-opacity="1"><g transform="translate(233.338716, 112.205694)"><g><path d="M 1.265625 0 C 0.796875 0 0.429688 -0.140625 0.171875 -0.421875 C -0.078125 -0.703125 -0.203125 -1.046875 -0.203125 -1.453125 C -0.203125 -1.921875 -0.15625 -2.503906 -0.0625 -3.203125 C 0.0195312 -3.910156 0.195312 -4.671875 0.46875 -5.484375 C 0.75 -6.304688 1.023438 -7.054688 1.296875 -7.734375 C 1.566406 -8.421875 1.835938 -8.96875 2.109375 -9.375 C 2.378906 -9.789062 2.648438 -10 2.921875 -10 C 3.140625 -10 3.296875 -9.921875 3.390625 -9.765625 C 3.484375 -9.617188 3.53125 -9.441406 3.53125 -9.234375 C 3.53125 -8.898438 3.628906 -8.671875 3.828125 -8.546875 C 4.035156 -8.421875 4.296875 -8.519531 4.609375 -8.84375 C 4.984375 -9.207031 5.367188 -9.488281 5.765625 -9.6875 C 6.171875 -9.882812 6.59375 -9.984375 7.03125 -9.984375 C 7.53125 -9.984375 7.921875 -9.863281 8.203125 -9.625 C 8.492188 -9.382812 8.6875 -9.082031 8.78125 -8.71875 C 8.800781 -8.59375 8.851562 -8.519531 8.9375 -8.5 C 9.019531 -8.476562 9.132812 -8.550781 9.28125 -8.71875 C 9.664062 -9.144531 10.070312 -9.46875 10.5 -9.6875 C 10.925781 -9.914062 11.378906 -10.03125 11.859375 -10.03125 C 12.640625 -10.019531 13.191406 -9.832031 13.515625 -9.46875 C 13.835938 -9.101562 14 -8.671875 14 -8.171875 C 14 -7.828125 13.941406 -7.507812 13.828125 -7.21875 C 13.722656 -6.925781 13.617188 -6.644531 13.515625 -6.375 C 13.410156 -6.101562 13.359375 -5.800781 13.359375 -5.46875 C 13.359375 -4.769531 13.679688 -4.421875 14.328125 -4.421875 C 14.640625 -4.421875 14.898438 -4.519531 15.109375 -4.71875 C 15.316406 -4.914062 15.519531 -5.160156 15.71875 -5.453125 C 15.820312 -5.609375 15.957031 -5.660156 16.125 -5.609375 C 16.300781 -5.566406 16.445312 -5.476562 16.5625 -5.34375 C 16.675781 -5.21875 16.691406 -5.085938 16.609375 -4.953125 C 16.484375 -4.734375 16.320312 -4.421875 16.125 -4.015625 C 15.9375 -3.609375 15.710938 -3.175781 15.453125 -2.71875 C 15.191406 -2.257812 14.882812 -1.816406 14.53125 -1.390625 C 14.1875 -0.972656 13.796875 -0.628906 13.359375 -0.359375 C 12.929688 -0.0976562 12.445312 0.0234375 11.90625 0.015625 C 11.257812 0.015625 10.8125 -0.191406 10.5625 -0.609375 C 10.3125 -1.035156 10.1875 -1.535156 10.1875 -2.109375 C 10.1875 -2.609375 10.253906 -3.085938 10.390625 -3.546875 C 10.535156 -4.015625 10.675781 -4.4375 10.8125 -4.8125 C 10.957031 -5.195312 11.03125 -5.519531 11.03125 -5.78125 C 11.03125 -6.007812 10.957031 -6.179688 10.8125 -6.296875 C 10.675781 -6.421875 10.5 -6.484375 10.28125 -6.484375 C 9.894531 -6.484375 9.535156 -6.320312 9.203125 -6 C 8.878906 -5.6875 8.613281 -5.285156 8.40625 -4.796875 C 8.207031 -4.316406 8.101562 -3.828125 8.09375 -3.328125 C 8.09375 -3.035156 8.113281 -2.804688 8.15625 -2.640625 C 8.207031 -2.484375 8.234375 -2.257812 8.234375 -1.96875 C 8.234375 -1.6875 8.191406 -1.394531 8.109375 -1.09375 C 8.023438 -0.789062 7.851562 -0.535156 7.59375 -0.328125 C 7.34375 -0.128906 6.960938 -0.03125 6.453125 -0.03125 C 6.003906 -0.03125 5.625 -0.15625 5.3125 -0.40625 C 5.007812 -0.65625 4.859375 -1.109375 4.859375 -1.765625 C 4.859375 -2.273438 4.941406 -2.757812 5.109375 -3.21875 C 5.273438 -3.6875 5.441406 -4.128906 5.609375 -4.546875 C 5.785156 -4.960938 5.875 -5.335938 5.875 -5.671875 C 5.875 -5.929688 5.800781 -6.125 5.65625 -6.25 C 5.519531 -6.375 5.335938 -6.4375 5.109375 -6.4375 C 4.722656 -6.4375 4.367188 -6.273438 4.046875 -5.953125 C 3.722656 -5.640625 3.457031 -5.222656 3.25 -4.703125 C 3.039062 -4.179688 2.9375 -3.617188 2.9375 -3.015625 L 2.9375 -2.125 C 2.9375 -1.789062 2.894531 -1.457031 2.8125 -1.125 C 2.738281 -0.800781 2.582031 -0.53125 2.34375 -0.3125 C 2.101562 -0.101562 1.742188 0 1.265625 0 Z M 1.265625 0 "/></g></g></g><g fill="#ffffff" fill-opacity="1"><g transform="translate(248.572672, 112.23549)"><g><path d="M 2.125 0 C 1.4375 0 0.921875 -0.28125 0.578125 -0.84375 C 0.234375 -1.40625 0.0625 -2.128906 0.0625 -3.015625 C 0.0625 -3.578125 0.132812 -4.175781 0.28125 -4.8125 C 0.425781 -5.445312 0.632812 -6.066406 0.90625 -6.671875 C 1.175781 -7.285156 1.519531 -7.84375 1.9375 -8.34375 C 2.351562 -8.84375 2.832031 -9.238281 3.375 -9.53125 C 3.925781 -9.832031 4.546875 -9.984375 5.234375 -9.984375 C 5.628906 -9.984375 5.9375 -9.945312 6.15625 -9.875 C 6.382812 -9.800781 6.550781 -9.707031 6.65625 -9.59375 C 6.769531 -9.488281 6.867188 -9.398438 6.953125 -9.328125 C 7.035156 -9.253906 7.144531 -9.21875 7.28125 -9.21875 C 7.5 -9.21875 7.675781 -9.28125 7.8125 -9.40625 C 7.957031 -9.539062 8.117188 -9.671875 8.296875 -9.796875 C 8.472656 -9.921875 8.710938 -9.984375 9.015625 -9.984375 C 9.285156 -9.984375 9.46875 -9.914062 9.5625 -9.78125 C 9.664062 -9.644531 9.71875 -9.46875 9.71875 -9.25 C 9.71875 -8.875 9.613281 -8.5 9.40625 -8.125 C 9.195312 -7.757812 8.976562 -7.285156 8.75 -6.703125 C 8.414062 -5.972656 8.289062 -5.410156 8.375 -5.015625 C 8.46875 -4.628906 8.734375 -4.4375 9.171875 -4.4375 C 9.523438 -4.4375 9.828125 -4.523438 10.078125 -4.703125 C 10.328125 -4.890625 10.550781 -5.144531 10.75 -5.46875 C 10.863281 -5.625 11.003906 -5.675781 11.171875 -5.625 C 11.335938 -5.582031 11.472656 -5.492188 11.578125 -5.359375 C 11.691406 -5.234375 11.71875 -5.101562 11.65625 -4.96875 C 11.414062 -4.5 11.15625 -3.976562 10.875 -3.40625 C 10.59375 -2.84375 10.285156 -2.300781 9.953125 -1.78125 C 9.617188 -1.257812 9.238281 -0.828125 8.8125 -0.484375 C 8.394531 -0.148438 7.90625 0.015625 7.34375 0.015625 C 6.644531 0.015625 6.148438 -0.265625 5.859375 -0.828125 C 5.578125 -1.390625 5.5 -2.082031 5.625 -2.90625 L 5.546875 -2.90625 C 5.140625 -2.09375 4.644531 -1.40625 4.0625 -0.84375 C 3.476562 -0.28125 2.832031 0 2.125 0 Z M 4.140625 -4.125 C 4.484375 -4.125 4.785156 -4.222656 5.046875 -4.421875 C 5.304688 -4.617188 5.507812 -4.859375 5.65625 -5.140625 C 5.800781 -5.429688 5.875 -5.71875 5.875 -6 C 5.875 -6.332031 5.78125 -6.59375 5.59375 -6.78125 C 5.40625 -6.96875 5.148438 -7.0625 4.828125 -7.0625 C 4.484375 -7.0625 4.1875 -6.96875 3.9375 -6.78125 C 3.6875 -6.601562 3.488281 -6.367188 3.34375 -6.078125 C 3.207031 -5.796875 3.140625 -5.507812 3.140625 -5.21875 C 3.140625 -4.882812 3.226562 -4.617188 3.40625 -4.421875 C 3.582031 -4.234375 3.828125 -4.132812 4.140625 -4.125 Z M 4.140625 -4.125 "/></g></g></g><g fill="#ffffff" fill-opacity="1"><g transform="translate(258.848599, 112.255589)"><g><path d="M 8.375 -5.46875 C 8.476562 -5.625 8.617188 -5.675781 8.796875 -5.625 C 8.972656 -5.582031 9.113281 -5.492188 9.21875 -5.359375 C 9.332031 -5.234375 9.351562 -5.101562 9.28125 -4.96875 C 9.144531 -4.75 8.976562 -4.4375 8.78125 -4.03125 C 8.59375 -3.625 8.367188 -3.191406 8.109375 -2.734375 C 7.847656 -2.273438 7.546875 -1.832031 7.203125 -1.40625 C 6.859375 -0.988281 6.46875 -0.644531 6.03125 -0.375 C 5.59375 -0.113281 5.101562 0.015625 4.5625 0.015625 C 4.007812 0.00390625 3.570312 -0.101562 3.25 -0.3125 C 2.9375 -0.519531 2.707031 -0.785156 2.5625 -1.109375 C 2.425781 -1.429688 2.359375 -1.757812 2.359375 -2.09375 C 2.359375 -2.5625 2.429688 -3.019531 2.578125 -3.46875 C 2.722656 -3.925781 2.890625 -4.363281 3.078125 -4.78125 C 3.265625 -5.195312 3.425781 -5.578125 3.5625 -5.921875 C 3.707031 -6.265625 3.78125 -6.554688 3.78125 -6.796875 C 3.78125 -6.898438 3.703125 -7.054688 3.546875 -7.265625 C 3.390625 -7.472656 3.113281 -7.648438 2.71875 -7.796875 C 2.59375 -7.535156 2.445312 -7.226562 2.28125 -6.875 C 2.113281 -6.519531 1.945312 -6.171875 1.78125 -5.828125 C 1.613281 -5.484375 1.476562 -5.203125 1.375 -4.984375 C 1.289062 -4.804688 1.160156 -4.738281 0.984375 -4.78125 C 0.804688 -4.832031 0.65625 -4.929688 0.53125 -5.078125 C 0.414062 -5.222656 0.394531 -5.359375 0.46875 -5.484375 C 0.65625 -5.742188 0.863281 -6.128906 1.09375 -6.640625 C 1.320312 -7.160156 1.523438 -7.644531 1.703125 -8.09375 C 1.492188 -8.164062 1.328125 -8.28125 1.203125 -8.4375 C 1.085938 -8.601562 1.03125 -8.863281 1.03125 -9.21875 C 1.03125 -9.5 1.101562 -9.773438 1.25 -10.046875 C 1.394531 -10.316406 1.601562 -10.546875 1.875 -10.734375 C 2.144531 -10.921875 2.457031 -11.015625 2.8125 -11.015625 C 3.4375 -11.015625 4.039062 -10.890625 4.625 -10.640625 C 5.207031 -10.398438 5.679688 -10.097656 6.046875 -9.734375 C 6.421875 -9.367188 6.609375 -9.003906 6.609375 -8.640625 C 6.609375 -8.265625 6.539062 -7.910156 6.40625 -7.578125 C 6.269531 -7.242188 6.125 -6.90625 5.96875 -6.5625 C 5.820312 -6.21875 5.75 -5.835938 5.75 -5.421875 C 5.75 -5.140625 5.84375 -4.90625 6.03125 -4.71875 C 6.21875 -4.53125 6.539062 -4.4375 7 -4.4375 C 7.300781 -4.4375 7.554688 -4.535156 7.765625 -4.734375 C 7.972656 -4.929688 8.175781 -5.175781 8.375 -5.46875 Z M 8.375 -5.46875 "/></g></g></g><g fill="#ffffff" fill-opacity="1"><g transform="translate(266.745465, 112.271035)"><g><path d="M 1.359375 0 C 0.785156 0 0.378906 -0.195312 0.140625 -0.59375 C -0.0859375 -0.988281 -0.203125 -1.476562 -0.203125 -2.0625 C -0.203125 -2.5625 -0.132812 -3.113281 0 -3.71875 C 0.132812 -4.320312 0.300781 -4.910156 0.5 -5.484375 C 1.175781 -7.429688 1.753906 -9.0625 2.234375 -10.375 C 2.710938 -11.695312 3.171875 -12.691406 3.609375 -13.359375 C 4.046875 -14.023438 4.535156 -14.359375 5.078125 -14.359375 C 5.484375 -14.359375 5.734375 -14.203125 5.828125 -13.890625 C 5.929688 -13.585938 5.835938 -13.117188 5.546875 -12.484375 C 5.179688 -11.671875 4.785156 -10.816406 4.359375 -9.921875 C 3.929688 -9.023438 3.625 -8.097656 3.4375 -7.140625 C 3.394531 -6.921875 3.445312 -6.769531 3.59375 -6.6875 C 3.75 -6.613281 3.925781 -6.601562 4.125 -6.65625 C 4.320312 -6.71875 4.457031 -6.832031 4.53125 -7 C 4.945312 -7.9375 5.398438 -8.664062 5.890625 -9.1875 C 6.390625 -9.71875 7 -9.984375 7.71875 -9.984375 C 8.3125 -9.984375 8.75 -9.820312 9.03125 -9.5 C 9.320312 -9.1875 9.46875 -8.828125 9.46875 -8.421875 C 9.46875 -7.066406 8.644531 -6.390625 7 -6.390625 C 6.664062 -6.367188 6.421875 -6.269531 6.265625 -6.09375 C 6.109375 -5.925781 6.03125 -5.722656 6.03125 -5.484375 C 6.03125 -5.148438 6.191406 -4.890625 6.515625 -4.703125 C 6.847656 -4.523438 7.285156 -4.4375 7.828125 -4.4375 C 8.421875 -4.4375 8.945312 -4.507812 9.40625 -4.65625 C 9.875 -4.8125 10.238281 -5.082031 10.5 -5.46875 C 10.65625 -5.707031 10.816406 -5.800781 10.984375 -5.75 C 11.148438 -5.695312 11.28125 -5.585938 11.375 -5.421875 C 11.46875 -5.253906 11.472656 -5.101562 11.390625 -4.96875 C 11.265625 -4.738281 11.097656 -4.421875 10.890625 -4.015625 C 10.691406 -3.617188 10.457031 -3.191406 10.1875 -2.734375 C 9.914062 -2.273438 9.597656 -1.832031 9.234375 -1.40625 C 8.878906 -0.988281 8.46875 -0.644531 8 -0.375 C 7.539062 -0.113281 7.035156 0.015625 6.484375 0.015625 C 5.785156 0.015625 5.269531 -0.296875 4.9375 -0.921875 C 4.613281 -1.546875 4.363281 -2.546875 4.1875 -3.921875 C 4.15625 -4.265625 4.035156 -4.484375 3.828125 -4.578125 C 3.617188 -4.671875 3.421875 -4.640625 3.234375 -4.484375 C 3.046875 -4.335938 2.945312 -4.054688 2.9375 -3.640625 L 2.9375 -2.125 C 2.9375 -1.789062 2.894531 -1.457031 2.8125 -1.125 C 2.738281 -0.800781 2.585938 -0.53125 2.359375 -0.3125 C 2.128906 -0.101562 1.796875 0 1.359375 0 Z M 1.359375 0 "/></g></g></g><g fill="#ffffff" fill-opacity="1"><g transform="translate(276.761497, 112.290625)"><g><path d="M 3.765625 0 C 2.960938 0 2.300781 -0.175781 1.78125 -0.53125 C 1.269531 -0.894531 0.890625 -1.375 0.640625 -1.96875 C 0.398438 -2.5625 0.285156 -3.210938 0.296875 -3.921875 C 0.304688 -4.640625 0.429688 -5.351562 0.671875 -6.0625 C 0.910156 -6.78125 1.253906 -7.4375 1.703125 -8.03125 C 2.160156 -8.625 2.710938 -9.097656 3.359375 -9.453125 C 4.003906 -9.804688 4.738281 -9.984375 5.5625 -9.984375 C 6.1875 -9.984375 6.691406 -9.863281 7.078125 -9.625 C 7.472656 -9.394531 7.765625 -9.085938 7.953125 -8.703125 C 8.140625 -8.316406 8.234375 -7.90625 8.234375 -7.46875 C 8.234375 -6.988281 8.097656 -6.503906 7.828125 -6.015625 C 7.566406 -5.535156 7.195312 -5.140625 6.71875 -4.828125 C 6.238281 -4.515625 5.671875 -4.359375 5.015625 -4.359375 C 4.734375 -4.359375 4.457031 -4.378906 4.1875 -4.421875 C 3.925781 -4.472656 3.679688 -4.566406 3.453125 -4.703125 C 3.390625 -4.742188 3.316406 -4.742188 3.234375 -4.703125 C 3.148438 -4.671875 3.109375 -4.585938 3.109375 -4.453125 C 3.097656 -4.109375 3.296875 -3.84375 3.703125 -3.65625 C 4.109375 -3.476562 4.601562 -3.390625 5.1875 -3.390625 C 5.863281 -3.390625 6.566406 -3.5625 7.296875 -3.90625 C 8.023438 -4.25 8.617188 -4.769531 9.078125 -5.46875 C 9.179688 -5.625 9.316406 -5.675781 9.484375 -5.625 C 9.660156 -5.582031 9.804688 -5.492188 9.921875 -5.359375 C 10.035156 -5.234375 10.050781 -5.101562 9.96875 -4.96875 C 9.082031 -3.34375 8.113281 -2.101562 7.0625 -1.25 C 6.019531 -0.40625 4.921875 0.0078125 3.765625 0 Z M 4.5 -5.859375 C 4.882812 -5.859375 5.1875 -5.984375 5.40625 -6.234375 C 5.625 -6.484375 5.734375 -6.734375 5.734375 -6.984375 C 5.734375 -7.210938 5.65625 -7.40625 5.5 -7.5625 C 5.351562 -7.71875 5.125 -7.796875 4.8125 -7.796875 C 4.425781 -7.796875 4.117188 -7.675781 3.890625 -7.4375 C 3.671875 -7.207031 3.5625 -6.960938 3.5625 -6.703125 C 3.5625 -6.484375 3.632812 -6.285156 3.78125 -6.109375 C 3.9375 -5.941406 4.175781 -5.859375 4.5 -5.859375 Z M 4.5 -5.859375 "/></g></g></g><g fill="#ffffff" fill-opacity="1"><g transform="translate(285.358087, 112.307439)"><g><path d="M 4.03125 -10.796875 C 3.550781 -10.804688 3.140625 -10.914062 2.796875 -11.125 C 2.453125 -11.332031 2.285156 -11.703125 2.296875 -12.234375 C 2.296875 -12.941406 2.488281 -13.425781 2.875 -13.6875 C 3.269531 -13.945312 3.742188 -14.070312 4.296875 -14.0625 C 4.796875 -14.0625 5.222656 -13.945312 5.578125 -13.71875 C 5.929688 -13.5 6.082031 -13.070312 6.03125 -12.4375 C 5.96875 -11.832031 5.75 -11.40625 5.375 -11.15625 C 5 -10.914062 4.550781 -10.796875 4.03125 -10.796875 Z M 1.796875 0 C 1.128906 0 0.65625 -0.238281 0.375 -0.71875 C 0.09375 -1.207031 -0.046875 -1.800781 -0.046875 -2.5 C -0.046875 -2.96875 0 -3.460938 0.09375 -3.984375 C 0.195312 -4.503906 0.320312 -5.003906 0.46875 -5.484375 C 0.9375 -6.929688 1.390625 -8.046875 1.828125 -8.828125 C 2.273438 -9.609375 2.785156 -10 3.359375 -10 C 3.804688 -9.988281 4.03125 -9.679688 4.03125 -9.078125 C 4.03125 -8.679688 3.953125 -8.273438 3.796875 -7.859375 C 3.648438 -7.441406 3.503906 -7.03125 3.359375 -6.625 C 3.210938 -6.21875 3.140625 -5.835938 3.140625 -5.484375 C 3.140625 -5.148438 3.222656 -4.898438 3.390625 -4.734375 C 3.554688 -4.566406 3.769531 -4.476562 4.03125 -4.46875 C 4.34375 -4.46875 4.597656 -4.5625 4.796875 -4.75 C 5.003906 -4.9375 5.210938 -5.175781 5.421875 -5.46875 C 5.523438 -5.625 5.660156 -5.679688 5.828125 -5.640625 C 5.992188 -5.597656 6.132812 -5.507812 6.25 -5.375 C 6.363281 -5.238281 6.382812 -5.109375 6.3125 -4.984375 C 6.175781 -4.773438 6.015625 -4.46875 5.828125 -4.0625 C 5.648438 -3.664062 5.429688 -3.234375 5.171875 -2.765625 C 4.921875 -2.296875 4.628906 -1.851562 4.296875 -1.4375 C 3.972656 -1.019531 3.601562 -0.675781 3.1875 -0.40625 C 2.78125 -0.132812 2.316406 0 1.796875 0 Z M 1.796875 0 "/></g></g></g><g fill="#ffffff" fill-opacity="1"><g transform="translate(290.276141, 112.317059)"><g><path d="M 1.265625 0 C 0.796875 0 0.429688 -0.140625 0.171875 -0.421875 C -0.078125 -0.703125 -0.203125 -1.046875 -0.203125 -1.453125 C -0.203125 -1.921875 -0.144531 -2.503906 -0.03125 -3.203125 C 0.0820312 -3.910156 0.25 -4.671875 0.46875 -5.484375 C 0.695312 -6.265625 0.945312 -7 1.21875 -7.6875 C 1.5 -8.375 1.78125 -8.929688 2.0625 -9.359375 C 2.351562 -9.785156 2.625 -10 2.875 -10 C 3.144531 -10 3.320312 -9.921875 3.40625 -9.765625 C 3.488281 -9.617188 3.53125 -9.441406 3.53125 -9.234375 C 3.53125 -8.847656 3.625 -8.601562 3.8125 -8.5 C 4 -8.40625 4.253906 -8.519531 4.578125 -8.84375 C 4.953125 -9.207031 5.335938 -9.488281 5.734375 -9.6875 C 6.128906 -9.882812 6.550781 -9.984375 7 -9.984375 C 7.613281 -9.984375 8.066406 -9.800781 8.359375 -9.4375 C 8.648438 -9.082031 8.796875 -8.648438 8.796875 -8.140625 C 8.796875 -7.796875 8.738281 -7.476562 8.625 -7.1875 C 8.519531 -6.90625 8.414062 -6.625 8.3125 -6.34375 C 8.207031 -6.070312 8.15625 -5.769531 8.15625 -5.4375 C 8.15625 -4.769531 8.472656 -4.4375 9.109375 -4.4375 C 9.421875 -4.4375 9.679688 -4.535156 9.890625 -4.734375 C 10.097656 -4.929688 10.300781 -5.175781 10.5 -5.46875 C 10.601562 -5.625 10.738281 -5.675781 10.90625 -5.625 C 11.082031 -5.582031 11.226562 -5.492188 11.34375 -5.359375 C 11.457031 -5.234375 11.472656 -5.101562 11.390625 -4.96875 C 11.265625 -4.75 11.101562 -4.4375 10.90625 -4.03125 C 10.71875 -3.625 10.492188 -3.191406 10.234375 -2.734375 C 9.972656 -2.273438 9.664062 -1.832031 9.3125 -1.40625 C 8.96875 -0.988281 8.578125 -0.644531 8.140625 -0.375 C 7.710938 -0.113281 7.226562 0.015625 6.6875 0.015625 C 6.050781 0.015625 5.609375 -0.1875 5.359375 -0.59375 C 5.109375 -1.007812 4.984375 -1.5 4.984375 -2.0625 C 4.984375 -2.570312 5.054688 -3.054688 5.203125 -3.515625 C 5.347656 -3.972656 5.488281 -4.390625 5.625 -4.765625 C 5.757812 -5.148438 5.828125 -5.476562 5.828125 -5.75 C 5.828125 -5.96875 5.757812 -6.132812 5.625 -6.25 C 5.488281 -6.375 5.304688 -6.4375 5.078125 -6.4375 C 4.691406 -6.4375 4.332031 -6.273438 4 -5.953125 C 3.675781 -5.640625 3.410156 -5.222656 3.203125 -4.703125 C 3.003906 -4.179688 2.90625 -3.617188 2.90625 -3.015625 L 2.90625 -2.125 C 2.90625 -1.789062 2.863281 -1.457031 2.78125 -1.125 C 2.695312 -0.800781 2.535156 -0.53125 2.296875 -0.3125 C 2.066406 -0.101562 1.722656 0 1.265625 0 Z M 1.265625 0 "/></g></g></g><g fill="#ffffff" fill-opacity="1"><g transform="translate(300.292174, 112.336649)"><g><path d="M 10.578125 -5.46875 C 10.660156 -5.582031 10.785156 -5.625 10.953125 -5.59375 C 11.128906 -5.5625 11.28125 -5.488281 11.40625 -5.375 C 11.53125 -5.257812 11.550781 -5.125 11.46875 -4.96875 C 11.175781 -4.351562 10.890625 -3.75 10.609375 -3.15625 C 10.335938 -2.570312 10.046875 -2.039062 9.734375 -1.5625 C 9.429688 -1.082031 9.09375 -0.695312 8.71875 -0.40625 C 8.34375 -0.125 7.914062 0.015625 7.4375 0.015625 C 7.144531 0.015625 6.910156 -0.128906 6.734375 -0.421875 C 6.304688 0.953125 5.847656 2.050781 5.359375 2.875 C 4.867188 3.695312 4.320312 4.289062 3.71875 4.65625 C 3.125 5.03125 2.445312 5.21875 1.6875 5.21875 C 0.632812 5.21875 -0.175781 4.941406 -0.75 4.390625 C -1.332031 3.835938 -1.625 3.082031 -1.625 2.125 C -1.625 1.613281 -1.550781 1.175781 -1.40625 0.8125 C -1.257812 0.445312 -1.09375 0.160156 -0.90625 -0.046875 C -0.71875 -0.265625 -0.550781 -0.40625 -0.40625 -0.46875 C -0.257812 -0.53125 -0.175781 -0.507812 -0.15625 -0.40625 C -0.101562 0.09375 0.113281 0.492188 0.5 0.796875 C 0.894531 1.109375 1.425781 1.269531 2.09375 1.28125 C 2.5625 1.28125 3.003906 1.164062 3.421875 0.9375 C 3.835938 0.71875 4.207031 0.425781 4.53125 0.0625 C 4.851562 -0.300781 5.109375 -0.703125 5.296875 -1.140625 C 5.484375 -1.578125 5.578125 -2.019531 5.578125 -2.46875 C 5.578125 -2.632812 5.507812 -2.710938 5.375 -2.703125 C 5.25 -2.703125 5.140625 -2.601562 5.046875 -2.40625 C 4.773438 -1.707031 4.378906 -1.160156 3.859375 -0.765625 C 3.347656 -0.378906 2.84375 -0.1875 2.34375 -0.1875 C 1.644531 -0.1875 1.085938 -0.441406 0.671875 -0.953125 C 0.265625 -1.460938 0.0625 -2.09375 0.0625 -2.84375 C 0.0625 -3.582031 0.171875 -4.363281 0.390625 -5.1875 C 0.609375 -6.019531 0.929688 -6.800781 1.359375 -7.53125 C 1.796875 -8.257812 2.335938 -8.851562 2.984375 -9.3125 C 3.628906 -9.769531 4.378906 -9.992188 5.234375 -9.984375 C 5.628906 -9.984375 5.9375 -9.945312 6.15625 -9.875 C 6.382812 -9.800781 6.550781 -9.707031 6.65625 -9.59375 C 6.769531 -9.488281 6.867188 -9.398438 6.953125 -9.328125 C 7.035156 -9.253906 7.144531 -9.21875 7.28125 -9.21875 C 7.5 -9.21875 7.675781 -9.28125 7.8125 -9.40625 C 7.957031 -9.539062 8.117188 -9.671875 8.296875 -9.796875 C 8.472656 -9.921875 8.710938 -9.984375 9.015625 -9.984375 C 9.285156 -9.984375 9.46875 -9.914062 9.5625 -9.78125 C 9.664062 -9.644531 9.71875 -9.46875 9.71875 -9.25 C 9.71875 -9.007812 9.640625 -8.722656 9.484375 -8.390625 C 9.328125 -8.066406 9.125 -7.644531 8.875 -7.125 C 8.632812 -6.613281 8.375 -5.953125 8.09375 -5.140625 C 7.957031 -4.609375 7.953125 -4.238281 8.078125 -4.03125 C 8.210938 -3.820312 8.394531 -3.71875 8.625 -3.71875 C 8.925781 -3.71875 9.253906 -3.90625 9.609375 -4.28125 C 9.960938 -4.65625 10.285156 -5.050781 10.578125 -5.46875 Z M 4.171875 -4.125 C 4.503906 -4.125 4.796875 -4.222656 5.046875 -4.421875 C 5.304688 -4.617188 5.507812 -4.859375 5.65625 -5.140625 C 5.800781 -5.429688 5.875 -5.71875 5.875 -6 C 5.875 -6.289062 5.785156 -6.539062 5.609375 -6.75 C 5.441406 -6.957031 5.164062 -7.0625 4.78125 -7.0625 C 4.457031 -7.0625 4.171875 -6.96875 3.921875 -6.78125 C 3.679688 -6.601562 3.488281 -6.367188 3.34375 -6.078125 C 3.207031 -5.796875 3.140625 -5.507812 3.140625 -5.21875 C 3.140625 -4.925781 3.21875 -4.671875 3.375 -4.453125 C 3.53125 -4.242188 3.796875 -4.132812 4.171875 -4.125 Z M 4.171875 -4.125 "/></g></g></g><g fill="#ffffff" fill-opacity="1"><g transform="translate(310.388166, 112.356396)"><g/></g></g><g fill="#ffffff" fill-opacity="1"><g transform="translate(317.585318, 112.370473)"><g><path d="M 2.34375 0 C 1.550781 0 0.972656 -0.269531 0.609375 -0.8125 C 0.242188 -1.363281 0.0625 -2.039062 0.0625 -2.84375 C 0.0625 -3.582031 0.171875 -4.363281 0.390625 -5.1875 C 0.609375 -6.019531 0.929688 -6.800781 1.359375 -7.53125 C 1.796875 -8.257812 2.335938 -8.851562 2.984375 -9.3125 C 3.628906 -9.769531 4.378906 -9.992188 5.234375 -9.984375 C 5.628906 -9.984375 5.9375 -9.9375 6.15625 -9.84375 C 6.382812 -9.75 6.550781 -9.640625 6.65625 -9.515625 C 6.769531 -9.390625 6.867188 -9.273438 6.953125 -9.171875 C 7.035156 -9.078125 7.144531 -9.03125 7.28125 -9.03125 C 7.382812 -9.03125 7.46875 -9.148438 7.53125 -9.390625 C 7.601562 -9.628906 7.703125 -9.984375 7.828125 -10.453125 C 7.960938 -10.929688 8.175781 -11.507812 8.46875 -12.1875 C 8.71875 -12.800781 8.96875 -13.265625 9.21875 -13.578125 C 9.46875 -13.890625 9.703125 -14.097656 9.921875 -14.203125 C 10.148438 -14.304688 10.367188 -14.359375 10.578125 -14.359375 C 10.921875 -14.359375 11.148438 -14.1875 11.265625 -13.84375 C 11.378906 -13.507812 11.300781 -13.054688 11.03125 -12.484375 L 8.75 -6.703125 C 8.414062 -5.972656 8.289062 -5.410156 8.375 -5.015625 C 8.46875 -4.628906 8.734375 -4.4375 9.171875 -4.4375 C 9.523438 -4.4375 9.828125 -4.523438 10.078125 -4.703125 C 10.328125 -4.890625 10.550781 -5.144531 10.75 -5.46875 C 10.863281 -5.625 11.003906 -5.675781 11.171875 -5.625 C 11.335938 -5.582031 11.472656 -5.492188 11.578125 -5.359375 C 11.691406 -5.234375 11.71875 -5.101562 11.65625 -4.96875 C 11.414062 -4.5 11.15625 -3.976562 10.875 -3.40625 C 10.59375 -2.84375 10.285156 -2.300781 9.953125 -1.78125 C 9.617188 -1.257812 9.238281 -0.828125 8.8125 -0.484375 C 8.394531 -0.148438 7.90625 0.015625 7.34375 0.015625 C 6.695312 0.015625 6.21875 -0.265625 5.90625 -0.828125 C 5.601562 -1.390625 5.507812 -2.082031 5.625 -2.90625 L 5.546875 -2.90625 C 5.128906 -2.09375 4.644531 -1.40625 4.09375 -0.84375 C 3.539062 -0.28125 2.957031 0 2.34375 0 Z M 4.171875 -4.125 C 4.503906 -4.125 4.796875 -4.222656 5.046875 -4.421875 C 5.304688 -4.617188 5.507812 -4.859375 5.65625 -5.140625 C 5.800781 -5.429688 5.875 -5.71875 5.875 -6 C 5.875 -6.289062 5.785156 -6.539062 5.609375 -6.75 C 5.441406 -6.957031 5.164062 -7.0625 4.78125 -7.0625 C 4.457031 -7.0625 4.171875 -6.96875 3.921875 -6.78125 C 3.679688 -6.601562 3.488281 -6.367188 3.34375 -6.078125 C 3.207031 -5.796875 3.140625 -5.507812 3.140625 -5.21875 C 3.140625 -4.925781 3.21875 -4.671875 3.375 -4.453125 C 3.53125 -4.242188 3.796875 -4.132812 4.171875 -4.125 Z M 4.171875 -4.125 "/></g></g></g><g fill="#ffffff" fill-opacity="1"><g transform="translate(327.861245, 112.390571)"><g><path d="M 4.03125 -10.796875 C 3.550781 -10.804688 3.140625 -10.914062 2.796875 -11.125 C 2.453125 -11.332031 2.285156 -11.703125 2.296875 -12.234375 C 2.296875 -12.941406 2.488281 -13.425781 2.875 -13.6875 C 3.269531 -13.945312 3.742188 -14.070312 4.296875 -14.0625 C 4.796875 -14.0625 5.222656 -13.945312 5.578125 -13.71875 C 5.929688 -13.5 6.082031 -13.070312 6.03125 -12.4375 C 5.96875 -11.832031 5.75 -11.40625 5.375 -11.15625 C 5 -10.914062 4.550781 -10.796875 4.03125 -10.796875 Z M 1.796875 0 C 1.128906 0 0.65625 -0.238281 0.375 -0.71875 C 0.09375 -1.207031 -0.046875 -1.800781 -0.046875 -2.5 C -0.046875 -2.96875 0 -3.460938 0.09375 -3.984375 C 0.195312 -4.503906 0.320312 -5.003906 0.46875 -5.484375 C 0.9375 -6.929688 1.390625 -8.046875 1.828125 -8.828125 C 2.273438 -9.609375 2.785156 -10 3.359375 -10 C 3.804688 -9.988281 4.03125 -9.679688 4.03125 -9.078125 C 4.03125 -8.679688 3.953125 -8.273438 3.796875 -7.859375 C 3.648438 -7.441406 3.503906 -7.03125 3.359375 -6.625 C 3.210938 -6.21875 3.140625 -5.835938 3.140625 -5.484375 C 3.140625 -5.148438 3.222656 -4.898438 3.390625 -4.734375 C 3.554688 -4.566406 3.769531 -4.476562 4.03125 -4.46875 C 4.34375 -4.46875 4.597656 -4.5625 4.796875 -4.75 C 5.003906 -4.9375 5.210938 -5.175781 5.421875 -5.46875 C 5.523438 -5.625 5.660156 -5.679688 5.828125 -5.640625 C 5.992188 -5.597656 6.132812 -5.507812 6.25 -5.375 C 6.363281 -5.238281 6.382812 -5.109375 6.3125 -4.984375 C 6.175781 -4.773438 6.015625 -4.46875 5.828125 -4.0625 C 5.648438 -3.664062 5.429688 -3.234375 5.171875 -2.765625 C 4.921875 -2.296875 4.628906 -1.851562 4.296875 -1.4375 C 3.972656 -1.019531 3.601562 -0.675781 3.1875 -0.40625 C 2.78125 -0.132812 2.316406 0 1.796875 0 Z M 1.796875 0 "/></g></g></g><g fill="#ffffff" fill-opacity="1"><g transform="translate(332.7793, 112.400191)"><g><path d="M 10.578125 -5.46875 C 10.660156 -5.582031 10.785156 -5.625 10.953125 -5.59375 C 11.128906 -5.5625 11.28125 -5.488281 11.40625 -5.375 C 11.53125 -5.257812 11.550781 -5.125 11.46875 -4.96875 C 11.175781 -4.351562 10.890625 -3.75 10.609375 -3.15625 C 10.335938 -2.570312 10.046875 -2.039062 9.734375 -1.5625 C 9.429688 -1.082031 9.09375 -0.695312 8.71875 -0.40625 C 8.34375 -0.125 7.914062 0.015625 7.4375 0.015625 C 7.144531 0.015625 6.910156 -0.128906 6.734375 -0.421875 C 6.304688 0.953125 5.847656 2.050781 5.359375 2.875 C 4.867188 3.695312 4.320312 4.289062 3.71875 4.65625 C 3.125 5.03125 2.445312 5.21875 1.6875 5.21875 C 0.632812 5.21875 -0.175781 4.941406 -0.75 4.390625 C -1.332031 3.835938 -1.625 3.082031 -1.625 2.125 C -1.625 1.613281 -1.550781 1.175781 -1.40625 0.8125 C -1.257812 0.445312 -1.09375 0.160156 -0.90625 -0.046875 C -0.71875 -0.265625 -0.550781 -0.40625 -0.40625 -0.46875 C -0.257812 -0.53125 -0.175781 -0.507812 -0.15625 -0.40625 C -0.101562 0.09375 0.113281 0.492188 0.5 0.796875 C 0.894531 1.109375 1.425781 1.269531 2.09375 1.28125 C 2.5625 1.28125 3.003906 1.164062 3.421875 0.9375 C 3.835938 0.71875 4.207031 0.425781 4.53125 0.0625 C 4.851562 -0.300781 5.109375 -0.703125 5.296875 -1.140625 C 5.484375 -1.578125 5.578125 -2.019531 5.578125 -2.46875 C 5.578125 -2.632812 5.507812 -2.710938 5.375 -2.703125 C 5.25 -2.703125 5.140625 -2.601562 5.046875 -2.40625 C 4.773438 -1.707031 4.378906 -1.160156 3.859375 -0.765625 C 3.347656 -0.378906 2.84375 -0.1875 2.34375 -0.1875 C 1.644531 -0.1875 1.085938 -0.441406 0.671875 -0.953125 C 0.265625 -1.460938 0.0625 -2.09375 0.0625 -2.84375 C 0.0625 -3.582031 0.171875 -4.363281 0.390625 -5.1875 C 0.609375 -6.019531 0.929688 -6.800781 1.359375 -7.53125 C 1.796875 -8.257812 2.335938 -8.851562 2.984375 -9.3125 C 3.628906 -9.769531 4.378906 -9.992188 5.234375 -9.984375 C 5.628906 -9.984375 5.9375 -9.945312 6.15625 -9.875 C 6.382812 -9.800781 6.550781 -9.707031 6.65625 -9.59375 C 6.769531 -9.488281 6.867188 -9.398438 6.953125 -9.328125 C 7.035156 -9.253906 7.144531 -9.21875 7.28125 -9.21875 C 7.5 -9.21875 7.675781 -9.28125 7.8125 -9.40625 C 7.957031 -9.539062 8.117188 -9.671875 8.296875 -9.796875 C 8.472656 -9.921875 8.710938 -9.984375 9.015625 -9.984375 C 9.285156 -9.984375 9.46875 -9.914062 9.5625 -9.78125 C 9.664062 -9.644531 9.71875 -9.46875 9.71875 -9.25 C 9.71875 -9.007812 9.640625 -8.722656 9.484375 -8.390625 C 9.328125 -8.066406 9.125 -7.644531 8.875 -7.125 C 8.632812 -6.613281 8.375 -5.953125 8.09375 -5.140625 C 7.957031 -4.609375 7.953125 -4.238281 8.078125 -4.03125 C 8.210938 -3.820312 8.394531 -3.71875 8.625 -3.71875 C 8.925781 -3.71875 9.253906 -3.90625 9.609375 -4.28125 C 9.960938 -4.65625 10.285156 -5.050781 10.578125 -5.46875 Z M 4.171875 -4.125 C 4.503906 -4.125 4.796875 -4.222656 5.046875 -4.421875 C 5.304688 -4.617188 5.507812 -4.859375 5.65625 -5.140625 C 5.800781 -5.429688 5.875 -5.71875 5.875 -6 C 5.875 -6.289062 5.785156 -6.539062 5.609375 -6.75 C 5.441406 -6.957031 5.164062 -7.0625 4.78125 -7.0625 C 4.457031 -7.0625 4.171875 -6.96875 3.921875 -6.78125 C 3.679688 -6.601562 3.488281 -6.367188 3.34375 -6.078125 C 3.207031 -5.796875 3.140625 -5.507812 3.140625 -5.21875 C 3.140625 -4.925781 3.21875 -4.671875 3.375 -4.453125 C 3.53125 -4.242188 3.796875 -4.132812 4.171875 -4.125 Z M 4.171875 -4.125 "/></g></g></g><g fill="#ffffff" fill-opacity="1"><g transform="translate(342.875303, 112.419938)"><g><path d="M 4.03125 -10.796875 C 3.550781 -10.804688 3.140625 -10.914062 2.796875 -11.125 C 2.453125 -11.332031 2.285156 -11.703125 2.296875 -12.234375 C 2.296875 -12.941406 2.488281 -13.425781 2.875 -13.6875 C 3.269531 -13.945312 3.742188 -14.070312 4.296875 -14.0625 C 4.796875 -14.0625 5.222656 -13.945312 5.578125 -13.71875 C 5.929688 -13.5 6.082031 -13.070312 6.03125 -12.4375 C 5.96875 -11.832031 5.75 -11.40625 5.375 -11.15625 C 5 -10.914062 4.550781 -10.796875 4.03125 -10.796875 Z M 1.796875 0 C 1.128906 0 0.65625 -0.238281 0.375 -0.71875 C 0.09375 -1.207031 -0.046875 -1.800781 -0.046875 -2.5 C -0.046875 -2.96875 0 -3.460938 0.09375 -3.984375 C 0.195312 -4.503906 0.320312 -5.003906 0.46875 -5.484375 C 0.9375 -6.929688 1.390625 -8.046875 1.828125 -8.828125 C 2.273438 -9.609375 2.785156 -10 3.359375 -10 C 3.804688 -9.988281 4.03125 -9.679688 4.03125 -9.078125 C 4.03125 -8.679688 3.953125 -8.273438 3.796875 -7.859375 C 3.648438 -7.441406 3.503906 -7.03125 3.359375 -6.625 C 3.210938 -6.21875 3.140625 -5.835938 3.140625 -5.484375 C 3.140625 -5.148438 3.222656 -4.898438 3.390625 -4.734375 C 3.554688 -4.566406 3.769531 -4.476562 4.03125 -4.46875 C 4.34375 -4.46875 4.597656 -4.5625 4.796875 -4.75 C 5.003906 -4.9375 5.210938 -5.175781 5.421875 -5.46875 C 5.523438 -5.625 5.660156 -5.679688 5.828125 -5.640625 C 5.992188 -5.597656 6.132812 -5.507812 6.25 -5.375 C 6.363281 -5.238281 6.382812 -5.109375 6.3125 -4.984375 C 6.175781 -4.773438 6.015625 -4.46875 5.828125 -4.0625 C 5.648438 -3.664062 5.429688 -3.234375 5.171875 -2.765625 C 4.921875 -2.296875 4.628906 -1.851562 4.296875 -1.4375 C 3.972656 -1.019531 3.601562 -0.675781 3.1875 -0.40625 C 2.78125 -0.132812 2.316406 0 1.796875 0 Z M 1.796875 0 "/></g></g></g><g fill="#ffffff" fill-opacity="1"><g transform="translate(347.793369, 112.429557)"><g><path d="M 2.015625 0 C 1.273438 0 0.726562 -0.226562 0.375 -0.6875 C 0.0195312 -1.144531 -0.15625 -1.742188 -0.15625 -2.484375 C -0.15625 -3.222656 -0.00390625 -4.019531 0.296875 -4.875 C 0.472656 -5.382812 0.664062 -5.929688 0.875 -6.515625 C 1.09375 -7.109375 1.328125 -7.75 1.578125 -8.4375 C 1.285156 -8.4375 1.0625 -8.515625 0.90625 -8.671875 C 0.75 -8.828125 0.644531 -9.003906 0.59375 -9.203125 C 0.550781 -9.410156 0.550781 -9.59375 0.59375 -9.75 C 0.644531 -9.90625 0.734375 -9.984375 0.859375 -9.984375 C 1.441406 -9.984375 1.898438 -10.144531 2.234375 -10.46875 C 2.566406 -10.789062 2.800781 -11.132812 2.9375 -11.5 C 3.1875 -12.082031 3.421875 -12.453125 3.640625 -12.609375 C 3.867188 -12.765625 4.113281 -12.835938 4.375 -12.828125 C 4.75 -12.828125 4.976562 -12.671875 5.0625 -12.359375 C 5.15625 -12.046875 5.046875 -11.570312 4.734375 -10.9375 C 4.585938 -10.625 4.503906 -10.382812 4.484375 -10.21875 C 4.472656 -10.050781 4.5625 -9.96875 4.75 -9.96875 L 5.796875 -9.96875 C 5.929688 -9.96875 6.015625 -9.875 6.046875 -9.6875 C 6.085938 -9.5 6.082031 -9.285156 6.03125 -9.046875 C 5.988281 -8.804688 5.90625 -8.59375 5.78125 -8.40625 C 5.65625 -8.21875 5.492188 -8.125 5.296875 -8.125 C 4.679688 -8.125 4.226562 -8.101562 3.9375 -8.0625 C 3.644531 -8.019531 3.4375 -7.90625 3.3125 -7.71875 C 3.195312 -7.53125 3.070312 -7.210938 2.9375 -6.765625 C 2.71875 -6.066406 2.742188 -5.507812 3.015625 -5.09375 C 3.296875 -4.6875 3.726562 -4.476562 4.3125 -4.46875 C 4.71875 -4.46875 5.078125 -4.554688 5.390625 -4.734375 C 5.703125 -4.910156 5.957031 -5.15625 6.15625 -5.46875 C 6.257812 -5.625 6.394531 -5.675781 6.5625 -5.625 C 6.726562 -5.582031 6.867188 -5.492188 6.984375 -5.359375 C 7.097656 -5.234375 7.125 -5.101562 7.0625 -4.96875 C 6.9375 -4.738281 6.769531 -4.421875 6.5625 -4.015625 C 6.363281 -3.617188 6.125 -3.1875 5.84375 -2.71875 C 5.5625 -2.257812 5.234375 -1.820312 4.859375 -1.40625 C 4.484375 -0.988281 4.054688 -0.648438 3.578125 -0.390625 C 3.109375 -0.128906 2.585938 0 2.015625 0 Z M 2.015625 0 "/></g></g></g><g fill="#ffffff" fill-opacity="1"><g transform="translate(353.471115, 112.440662)"><g><path d="M 2.125 0 C 1.4375 0 0.921875 -0.28125 0.578125 -0.84375 C 0.234375 -1.40625 0.0625 -2.128906 0.0625 -3.015625 C 0.0625 -3.578125 0.132812 -4.175781 0.28125 -4.8125 C 0.425781 -5.445312 0.632812 -6.066406 0.90625 -6.671875 C 1.175781 -7.285156 1.519531 -7.84375 1.9375 -8.34375 C 2.351562 -8.84375 2.832031 -9.238281 3.375 -9.53125 C 3.925781 -9.832031 4.546875 -9.984375 5.234375 -9.984375 C 5.628906 -9.984375 5.9375 -9.945312 6.15625 -9.875 C 6.382812 -9.800781 6.550781 -9.707031 6.65625 -9.59375 C 6.769531 -9.488281 6.867188 -9.398438 6.953125 -9.328125 C 7.035156 -9.253906 7.144531 -9.21875 7.28125 -9.21875 C 7.5 -9.21875 7.675781 -9.28125 7.8125 -9.40625 C 7.957031 -9.539062 8.117188 -9.671875 8.296875 -9.796875 C 8.472656 -9.921875 8.710938 -9.984375 9.015625 -9.984375 C 9.285156 -9.984375 9.46875 -9.914062 9.5625 -9.78125 C 9.664062 -9.644531 9.71875 -9.46875 9.71875 -9.25 C 9.71875 -8.875 9.613281 -8.5 9.40625 -8.125 C 9.195312 -7.757812 8.976562 -7.285156 8.75 -6.703125 C 8.414062 -5.972656 8.289062 -5.410156 8.375 -5.015625 C 8.46875 -4.628906 8.734375 -4.4375 9.171875 -4.4375 C 9.523438 -4.4375 9.828125 -4.523438 10.078125 -4.703125 C 10.328125 -4.890625 10.550781 -5.144531 10.75 -5.46875 C 10.863281 -5.625 11.003906 -5.675781 11.171875 -5.625 C 11.335938 -5.582031 11.472656 -5.492188 11.578125 -5.359375 C 11.691406 -5.234375 11.71875 -5.101562 11.65625 -4.96875 C 11.414062 -4.5 11.15625 -3.976562 10.875 -3.40625 C 10.59375 -2.84375 10.285156 -2.300781 9.953125 -1.78125 C 9.617188 -1.257812 9.238281 -0.828125 8.8125 -0.484375 C 8.394531 -0.148438 7.90625 0.015625 7.34375 0.015625 C 6.644531 0.015625 6.148438 -0.265625 5.859375 -0.828125 C 5.578125 -1.390625 5.5 -2.082031 5.625 -2.90625 L 5.546875 -2.90625 C 5.140625 -2.09375 4.644531 -1.40625 4.0625 -0.84375 C 3.476562 -0.28125 2.832031 0 2.125 0 Z M 4.140625 -4.125 C 4.484375 -4.125 4.785156 -4.222656 5.046875 -4.421875 C 5.304688 -4.617188 5.507812 -4.859375 5.65625 -5.140625 C 5.800781 -5.429688 5.875 -5.71875 5.875 -6 C 5.875 -6.332031 5.78125 -6.59375 5.59375 -6.78125 C 5.40625 -6.96875 5.148438 -7.0625 4.828125 -7.0625 C 4.484375 -7.0625 4.1875 -6.96875 3.9375 -6.78125 C 3.6875 -6.601562 3.488281 -6.367188 3.34375 -6.078125 C 3.207031 -5.796875 3.140625 -5.507812 3.140625 -5.21875 C 3.140625 -4.882812 3.226562 -4.617188 3.40625 -4.421875 C 3.582031 -4.234375 3.828125 -4.132812 4.140625 -4.125 Z M 4.140625 -4.125 "/></g></g></g><g fill="#ffffff" fill-opacity="1"><g transform="translate(363.747042, 112.460761)"><g><path d="M 1.703125 0 C 0.992188 0 0.5 -0.195312 0.21875 -0.59375 C -0.0625 -0.988281 -0.203125 -1.476562 -0.203125 -2.0625 C -0.203125 -2.5625 -0.132812 -3.113281 0 -3.71875 C 0.132812 -4.320312 0.300781 -4.910156 0.5 -5.484375 C 1.175781 -7.429688 1.753906 -9.0625 2.234375 -10.375 C 2.710938 -11.695312 3.171875 -12.691406 3.609375 -13.359375 C 4.046875 -14.023438 4.535156 -14.359375 5.078125 -14.359375 C 5.484375 -14.359375 5.738281 -14.203125 5.84375 -13.890625 C 5.957031 -13.578125 5.859375 -13.109375 5.546875 -12.484375 C 4.992188 -11.378906 4.519531 -10.359375 4.125 -9.421875 C 3.726562 -8.484375 3.421875 -7.597656 3.203125 -6.765625 C 3.085938 -6.378906 3.003906 -6.007812 2.953125 -5.65625 C 2.910156 -5.300781 2.957031 -5.007812 3.09375 -4.78125 C 3.226562 -4.5625 3.492188 -4.453125 3.890625 -4.453125 C 4.242188 -4.441406 4.550781 -4.523438 4.8125 -4.703125 C 5.070312 -4.890625 5.304688 -5.144531 5.515625 -5.46875 C 5.617188 -5.625 5.757812 -5.675781 5.9375 -5.625 C 6.113281 -5.582031 6.253906 -5.492188 6.359375 -5.359375 C 6.472656 -5.234375 6.492188 -5.101562 6.421875 -4.96875 C 6.285156 -4.75 6.117188 -4.4375 5.921875 -4.03125 C 5.734375 -3.625 5.507812 -3.191406 5.25 -2.734375 C 4.988281 -2.273438 4.679688 -1.835938 4.328125 -1.421875 C 3.984375 -1.003906 3.59375 -0.660156 3.15625 -0.390625 C 2.726562 -0.128906 2.242188 0 1.703125 0 Z M 1.703125 0 "/></g></g></g></svg>