<svg xmlns="http://www.w3.org/2000/svg" xmlns:xlink="http://www.w3.org/1999/xlink" width="500" zoomAndPan="magnify" viewBox="0 0 375 149.999998" height="200" preserveAspectRatio="xMidYMid meet" version="1.0"><defs><g/><clipPath id="511050d5bd"><path d="M 3.324219 8.4375 L 372 8.4375 L 372 128.347656 L 3.324219 128.347656 Z M 3.324219 8.4375 " clip-rule="nonzero"/></clipPath><clipPath id="7aff6d6195"><path d="M 3.324219 8.441406 L 372.101562 8.441406 L 372.101562 128.34375 L 3.324219 128.34375 Z M 3.324219 8.441406 " clip-rule="nonzero"/></clipPath><clipPath id="5bb3be17a1"><path d="M 103.164062 111.058594 L 272.265625 111.058594 L 272.265625 135.96875 L 103.164062 135.96875 Z M 103.164062 111.058594 " clip-rule="nonzero"/></clipPath></defs><g clip-path="url(#511050d5bd)"><path fill="#211f3c" d="M 3.324219 8.4375 L 371.945312 8.4375 L 371.945312 128.347656 L 3.324219 128.347656 Z M 3.324219 8.4375 " fill-opacity="1" fill-rule="nonzero"/></g><g clip-path="url(#7aff6d6195)"><path stroke-linecap="butt" transform="matrix(0.75, 0, 0, 0.75, 3.323444, 8.43981)" fill="none" stroke-linejoin="miter" d="M 0.00103349 0.00212888 L 491.704187 0.00212888 L 491.704187 159.87193 L 0.00103349 159.87193 Z M 0.00103349 0.00212888 " stroke="#ffffff" stroke-width="4" stroke-opacity="1" stroke-miterlimit="4"/></g><g clip-path="url(#5bb3be17a1)"><path fill="#211f3c" d="M 103.164062 111.058594 L 272.292969 111.058594 L 272.292969 135.96875 L 103.164062 135.96875 Z M 103.164062 111.058594 " fill-opacity="1" fill-rule="nonzero"/></g><g fill="#ffffff" fill-opacity="1"><g transform="translate(26.841584, 91.046086)"><g><path d="M 16.328125 -49.171875 L 16.328125 0 L 4.34375 0 L 4.34375 -49.171875 Z M 16.328125 -49.171875 "/></g></g></g><g fill="#ffffff" fill-opacity="1"><g transform="translate(50.094562, 91.046086)"><g><path d="M 60.03125 -49.171875 L 60.03125 0 L 48.046875 0 L 48.046875 -29.484375 L 37.0625 0 L 27.390625 0 L 16.328125 -29.5625 L 16.328125 0 L 4.34375 0 L 4.34375 -49.171875 L 18.5 -49.171875 L 32.296875 -15.125 L 45.953125 -49.171875 Z M 60.03125 -49.171875 "/></g></g></g><g fill="#ffffff" fill-opacity="1"><g transform="translate(116.980557, 91.046086)"><g><path d="M 41.8125 -33.34375 C 41.8125 -30.488281 41.15625 -27.882812 39.84375 -25.53125 C 38.539062 -23.175781 36.535156 -21.273438 33.828125 -19.828125 C 31.117188 -18.378906 27.757812 -17.65625 23.75 -17.65625 L 16.328125 -17.65625 L 16.328125 0 L 4.34375 0 L 4.34375 -49.171875 L 23.75 -49.171875 C 27.664062 -49.171875 30.976562 -48.492188 33.6875 -47.140625 C 36.394531 -45.785156 38.425781 -43.914062 39.78125 -41.53125 C 41.132812 -39.15625 41.8125 -36.425781 41.8125 -33.34375 Z M 22.828125 -27.171875 C 25.117188 -27.171875 26.820312 -27.707031 27.9375 -28.78125 C 29.0625 -29.863281 29.625 -31.382812 29.625 -33.34375 C 29.625 -35.300781 29.0625 -36.816406 27.9375 -37.890625 C 26.820312 -38.960938 25.117188 -39.5 22.828125 -39.5 L 16.328125 -39.5 L 16.328125 -27.171875 Z M 22.828125 -27.171875 "/></g></g></g><g fill="#ffffff" fill-opacity="1"><g transform="translate(163.275686, 91.046086)"><g><path d="M 16.109375 -49.171875 L 16.109375 -19.75 C 16.109375 -16.8125 16.832031 -14.546875 18.28125 -12.953125 C 19.726562 -11.367188 21.851562 -10.578125 24.65625 -10.578125 C 27.457031 -10.578125 29.601562 -11.367188 31.09375 -12.953125 C 32.59375 -14.546875 33.34375 -16.8125 33.34375 -19.75 L 33.34375 -49.171875 L 45.328125 -49.171875 L 45.328125 -19.828125 C 45.328125 -15.429688 44.390625 -11.710938 42.515625 -8.671875 C 40.648438 -5.640625 38.140625 -3.351562 34.984375 -1.8125 C 31.835938 -0.28125 28.328125 0.484375 24.453125 0.484375 C 20.566406 0.484375 17.09375 -0.269531 14.03125 -1.78125 C 10.976562 -3.300781 8.5625 -5.585938 6.78125 -8.640625 C 5.007812 -11.703125 4.125 -15.429688 4.125 -19.828125 L 4.125 -49.171875 Z M 16.109375 -49.171875 "/></g></g></g><g fill="#ffffff" fill-opacity="1"><g transform="translate(215.243809, 91.046086)"><g><path d="M 16.328125 -9.25 L 32.015625 -9.25 L 32.015625 0 L 4.34375 0 L 4.34375 -49.171875 L 16.328125 -49.171875 Z M 16.328125 -9.25 "/></g></g></g><g fill="#ffffff" fill-opacity="1"><g transform="translate(251.243528, 91.046086)"><g><path d="M 22.140625 0.484375 C 18.535156 0.484375 15.3125 -0.0976562 12.46875 -1.265625 C 9.625 -2.429688 7.347656 -4.15625 5.640625 -6.4375 C 3.929688 -8.726562 3.03125 -11.484375 2.9375 -14.703125 L 15.6875 -14.703125 C 15.875 -12.890625 16.503906 -11.503906 17.578125 -10.546875 C 18.648438 -9.585938 20.050781 -9.109375 21.78125 -9.109375 C 23.5625 -9.109375 24.960938 -9.515625 25.984375 -10.328125 C 27.015625 -11.148438 27.53125 -12.285156 27.53125 -13.734375 C 27.53125 -14.941406 27.117188 -15.941406 26.296875 -16.734375 C 25.484375 -17.535156 24.476562 -18.191406 23.28125 -18.703125 C 22.09375 -19.210938 20.40625 -19.796875 18.21875 -20.453125 C 15.039062 -21.429688 12.445312 -22.410156 10.4375 -23.390625 C 8.425781 -24.367188 6.695312 -25.816406 5.25 -27.734375 C 3.800781 -29.648438 3.078125 -32.148438 3.078125 -35.234375 C 3.078125 -39.804688 4.734375 -43.390625 8.046875 -45.984375 C 11.367188 -48.578125 15.691406 -49.875 21.015625 -49.875 C 26.429688 -49.875 30.796875 -48.578125 34.109375 -45.984375 C 37.429688 -43.390625 39.207031 -39.78125 39.4375 -35.15625 L 26.484375 -35.15625 C 26.390625 -36.75 25.800781 -38 24.71875 -38.90625 C 23.644531 -39.820312 22.269531 -40.28125 20.59375 -40.28125 C 19.144531 -40.28125 17.976562 -39.894531 17.09375 -39.125 C 16.207031 -38.351562 15.765625 -37.242188 15.765625 -35.796875 C 15.765625 -34.203125 16.507812 -32.960938 18 -32.078125 C 19.5 -31.191406 21.832031 -30.234375 25 -29.203125 C 28.175781 -28.128906 30.753906 -27.101562 32.734375 -26.125 C 34.722656 -25.144531 36.441406 -23.71875 37.890625 -21.84375 C 39.335938 -19.976562 40.0625 -17.578125 40.0625 -14.640625 C 40.0625 -11.835938 39.347656 -9.289062 37.921875 -7 C 36.503906 -4.71875 34.441406 -2.898438 31.734375 -1.546875 C 29.023438 -0.191406 25.828125 0.484375 22.140625 0.484375 Z M 22.140625 0.484375 "/></g></g></g><g fill="#ffffff" fill-opacity="1"><g transform="translate(296.908339, 91.046086)"><g><path d="M 34.953125 -8.6875 L 16.59375 -8.6875 L 13.65625 0 L 1.125 0 L 18.90625 -49.171875 L 32.78125 -49.171875 L 50.578125 0 L 37.890625 0 Z M 31.875 -17.9375 L 25.78125 -35.9375 L 19.75 -17.9375 Z M 31.875 -17.9375 "/></g></g></g><g fill="#ffffff" fill-opacity="1"><g transform="translate(119.612348, 132.037165)"><g><path d="M 18.09375 -16.359375 L 18.09375 0 L 16.4375 0 L 16.4375 -13.0625 L 10.609375 0 L 9.390625 0 L 3.5625 -13.015625 L 3.5625 0 L 1.890625 0 L 1.890625 -16.359375 L 3.65625 -16.359375 L 9.984375 -2.1875 L 16.3125 -16.359375 Z M 18.09375 -16.359375 "/></g></g></g><g fill="#ffffff" fill-opacity="1"><g transform="translate(139.582177, 132.037165)"><g><path d="M 10.75 0 L 3.5625 -7.65625 L 3.5625 0 L 1.890625 0 L 1.890625 -16.578125 L 3.5625 -16.578125 L 3.5625 -8.828125 L 10.75 -16.578125 L 12.859375 -16.578125 L 5.09375 -8.296875 L 12.921875 0 Z M 10.75 0 "/></g></g></g><g fill="#ffffff" fill-opacity="1"><g transform="translate(153.053509, 132.037165)"><g><path d="M 11.59375 -16.578125 L 11.59375 -15.203125 L 7 -15.203125 L 7 0 L 5.34375 0 L 5.34375 -15.203125 L 0.71875 -15.203125 L 0.71875 -16.578125 Z M 11.59375 -16.578125 "/></g></g></g><g fill="#ffffff" fill-opacity="1"><g transform="translate(165.386414, 132.037165)"><g/></g></g><g fill="#ffffff" fill-opacity="1"><g transform="translate(171.884912, 132.037165)"><g><path d="M 6.8125 -16.578125 C 8.644531 -16.578125 10.21875 -16.242188 11.53125 -15.578125 C 12.84375 -14.921875 13.84375 -13.96875 14.53125 -12.71875 C 15.226562 -11.46875 15.578125 -9.976562 15.578125 -8.25 C 15.578125 -6.539062 15.226562 -5.066406 14.53125 -3.828125 C 13.84375 -2.585938 12.84375 -1.640625 11.53125 -0.984375 C 10.21875 -0.328125 8.644531 0 6.8125 0 L 1.890625 0 L 1.890625 -16.578125 Z M 6.8125 -1.375 C 9.113281 -1.375 10.867188 -1.976562 12.078125 -3.1875 C 13.296875 -4.394531 13.90625 -6.082031 13.90625 -8.25 C 13.90625 -10.4375 13.296875 -12.140625 12.078125 -13.359375 C 10.867188 -14.585938 9.113281 -15.203125 6.8125 -15.203125 L 3.5625 -15.203125 L 3.5625 -1.375 Z M 6.8125 -1.375 "/></g></g></g><g fill="#ffffff" fill-opacity="1"><g transform="translate(188.629213, 132.037165)"><g><path d="M 3.5625 -16.578125 L 3.5625 0 L 1.890625 0 L 1.890625 -16.578125 Z M 3.5625 -16.578125 "/></g></g></g><g fill="#ffffff" fill-opacity="1"><g transform="translate(194.06043, 132.037165)"><g><path d="M 14.9375 -11.734375 C 14.46875 -12.828125 13.742188 -13.6875 12.765625 -14.3125 C 11.796875 -14.9375 10.65625 -15.25 9.34375 -15.25 C 8.113281 -15.25 7.003906 -14.960938 6.015625 -14.390625 C 5.035156 -13.828125 4.257812 -13.019531 3.6875 -11.96875 C 3.125 -10.914062 2.84375 -9.691406 2.84375 -8.296875 C 2.84375 -6.910156 3.125 -5.6875 3.6875 -4.625 C 4.257812 -3.5625 5.035156 -2.742188 6.015625 -2.171875 C 7.003906 -1.609375 8.113281 -1.328125 9.34375 -1.328125 C 10.5 -1.328125 11.539062 -1.578125 12.46875 -2.078125 C 13.394531 -2.578125 14.132812 -3.285156 14.6875 -4.203125 C 15.25 -5.128906 15.570312 -6.210938 15.65625 -7.453125 L 8.6875 -7.453125 L 8.6875 -8.796875 L 17.40625 -8.796875 L 17.40625 -7.59375 C 17.332031 -6.132812 16.9375 -4.816406 16.21875 -3.640625 C 15.507812 -2.460938 14.554688 -1.53125 13.359375 -0.84375 C 12.171875 -0.164062 10.832031 0.171875 9.34375 0.171875 C 7.8125 0.171875 6.421875 -0.1875 5.171875 -0.90625 C 3.921875 -1.632812 2.9375 -2.640625 2.21875 -3.921875 C 1.5 -5.210938 1.140625 -6.671875 1.140625 -8.296875 C 1.140625 -9.929688 1.5 -11.390625 2.21875 -12.671875 C 2.9375 -13.960938 3.921875 -14.96875 5.171875 -15.6875 C 6.421875 -16.40625 7.8125 -16.765625 9.34375 -16.765625 C 11.113281 -16.765625 12.660156 -16.320312 13.984375 -15.4375 C 15.316406 -14.550781 16.285156 -13.316406 16.890625 -11.734375 Z M 14.9375 -11.734375 "/></g></g></g><g fill="#ffffff" fill-opacity="1"><g transform="translate(212.60723, 132.037165)"><g><path d="M 3.5625 -16.578125 L 3.5625 0 L 1.890625 0 L 1.890625 -16.578125 Z M 3.5625 -16.578125 "/></g></g></g><g fill="#ffffff" fill-opacity="1"><g transform="translate(218.038448, 132.037165)"><g><path d="M 11.59375 -16.578125 L 11.59375 -15.203125 L 7 -15.203125 L 7 0 L 5.34375 0 L 5.34375 -15.203125 L 0.71875 -15.203125 L 0.71875 -16.578125 Z M 11.59375 -16.578125 "/></g></g></g><g fill="#ffffff" fill-opacity="1"><g transform="translate(230.371353, 132.037165)"><g><path d="M 11.5 -3.9375 L 3.96875 -3.9375 L 2.515625 0 L 0.765625 0 L 6.8125 -16.359375 L 8.6875 -16.359375 L 14.703125 0 L 12.953125 0 Z M 11 -5.3125 L 7.734375 -14.28125 L 4.453125 -5.3125 Z M 11 -5.3125 "/></g></g></g><g fill="#ffffff" fill-opacity="1"><g transform="translate(245.834918, 132.037165)"><g><path d="M 3.5625 -1.359375 L 9.515625 -1.359375 L 9.515625 0 L 1.890625 0 L 1.890625 -16.578125 L 3.5625 -16.578125 Z M 3.5625 -1.359375 "/></g></g></g></svg>