<svg xmlns="http://www.w3.org/2000/svg" xmlns:xlink="http://www.w3.org/1999/xlink" width="150" zoomAndPan="magnify" viewBox="0 0 112.5 184.499993" height="246" preserveAspectRatio="xMidYMid meet" version="1.0"><defs><clipPath id="059601f911"><path d="M 1 13 L 110 13 L 110 166.667969 L 1 166.667969 Z M 1 13 " clip-rule="nonzero"/></clipPath></defs><g clip-path="url(#059601f911)"><path fill="#8c52ff" d="M 101.824219 131.660156 C 102.71875 135.433594 102.089844 139.324219 100.054688 142.621094 C 98.859375 144.554688 97.265625 146.148438 95.390625 147.316406 C 96.128906 150.773438 95.519531 154.328125 93.65625 157.347656 C 91.738281 160.453125 88.726562 162.625 85.175781 163.464844 L 72.410156 166.484375 C 71.359375 166.730469 70.296875 166.851562 69.238281 166.851562 C 66.734375 166.851562 64.273438 166.160156 62.085938 164.808594 C 59.066406 162.941406 56.925781 160.042969 56.039062 156.613281 C 50.015625 156.046875 44.742188 151.714844 43.273438 145.511719 L 40.195312 132.5 C 39.460938 129.40625 39.753906 126.226562 41.011719 123.367188 C 37.894531 119.386719 33.976562 116.105469 29.464844 113.710938 C 15.894531 106.523438 6.101562 93.925781 2.605469 79.144531 C -4.167969 50.507812 14.058594 21.597656 43.238281 14.695312 C 57.335938 11.359375 71.871094 13.597656 84.171875 21 C 96.535156 28.441406 105.15625 40.199219 108.445312 54.109375 C 111.945312 68.890625 108.839844 84.542969 99.925781 97.050781 C 96.960938 101.214844 94.929688 105.90625 93.925781 110.867188 C 96.257812 112.804688 98 115.488281 98.753906 118.660156 Z M 101.824219 131.660156 " fill-opacity="1" fill-rule="nonzero"/></g><path fill="#000000" d="M 91.96875 120.257812 C 91.289062 117.398438 89.050781 115.3125 86.371094 114.667969 C 86.992188 106.855469 89.691406 99.398438 94.25 93 C 101.996094 82.128906 104.699219 68.539062 101.664062 55.707031 C 98.808594 43.636719 91.316406 33.429688 80.574219 26.964844 C 69.847656 20.511719 57.15625 18.558594 44.84375 21.472656 C 19.402344 27.492188 3.496094 52.644531 9.390625 77.542969 C 12.421875 90.367188 20.933594 101.308594 32.730469 107.558594 C 39.675781 111.234375 45.425781 116.6875 49.480469 123.394531 C 48.871094 123.910156 48.335938 124.511719 47.90625 125.210938 C 46.847656 126.921875 46.523438 128.945312 46.984375 130.902344 L 50.0625 143.910156 C 50.878906 147.375 53.980469 149.710938 57.394531 149.710938 C 57.964844 149.710938 58.546875 149.644531 59.128906 149.507812 L 61.394531 148.972656 L 62.757812 154.730469 C 63.167969 156.46875 64.234375 157.945312 65.753906 158.882812 C 66.824219 159.542969 68.03125 159.882812 69.257812 159.882812 C 69.773438 159.882812 70.296875 159.820312 70.8125 159.699219 L 83.574219 156.679688 C 85.3125 156.269531 86.789062 155.203125 87.730469 153.683594 C 88.671875 152.160156 88.960938 150.367188 88.550781 148.628906 L 87.183594 142.867188 L 89.453125 142.332031 C 91.410156 141.867188 93.070312 140.667969 94.128906 138.957031 C 95.183594 137.242188 95.511719 135.222656 95.046875 133.265625 Z M 87.683594 121.269531 L 88.714844 125.632812 L 52.292969 134.25 L 51.265625 129.886719 C 51.070312 129.074219 51.210938 128.234375 51.644531 127.519531 C 52.085938 126.808594 52.773438 126.3125 53.589844 126.121094 L 83.914062 118.945312 C 84.15625 118.886719 84.398438 118.863281 84.636719 118.863281 C 86.054688 118.859375 87.34375 119.832031 87.683594 121.269531 Z M 64.238281 77.21875 L 73.613281 116.859375 L 71.597656 117.335938 L 61.859375 119.640625 L 52.480469 80 Z M 34.789062 103.667969 C 24.113281 98.011719 16.414062 88.121094 13.675781 76.527344 C 8.339844 53.992188 22.777344 31.214844 45.855469 25.753906 C 49.246094 24.953125 52.667969 24.554688 56.0625 24.554688 C 63.863281 24.554688 71.515625 26.652344 78.300781 30.734375 C 88.019531 36.585938 94.796875 45.8125 97.378906 56.722656 C 100.121094 68.3125 97.671875 80.609375 90.660156 90.445312 C 85.527344 97.648438 82.527344 106.070312 81.933594 114.886719 L 77.898438 115.839844 L 68.382812 75.628906 C 71.847656 73.53125 78.453125 69.308594 80.011719 66.78125 C 81.125 64.976562 81.472656 62.847656 80.984375 60.78125 C 80.496094 58.714844 79.230469 56.964844 77.425781 55.851562 C 75.621094 54.738281 73.488281 54.390625 71.425781 54.878906 C 69.359375 55.367188 67.609375 56.632812 66.496094 58.4375 C 64.9375 60.964844 64.121094 68.761719 63.796875 72.796875 L 50.894531 75.847656 C 48.796875 72.386719 44.574219 65.78125 42.046875 64.222656 C 38.320312 61.921875 33.417969 63.082031 31.117188 66.808594 C 30.003906 68.613281 29.65625 70.742188 30.144531 72.808594 C 30.632812 74.871094 31.898438 76.621094 33.703125 77.738281 C 36.230469 79.296875 44.027344 80.109375 48.0625 80.4375 L 57.574219 120.648438 L 53.542969 121.601562 C 49.0625 113.992188 42.609375 107.808594 34.789062 103.667969 Z M 68.441406 70.40625 C 68.910156 65.984375 69.601562 61.789062 70.242188 60.75 C 70.734375 59.949219 71.515625 59.382812 72.4375 59.167969 C 72.707031 59.101562 72.984375 59.070312 73.257812 59.070312 C 73.90625 59.070312 74.546875 59.25 75.109375 59.601562 C 75.914062 60.09375 76.480469 60.875 76.695312 61.796875 C 76.910156 62.71875 76.757812 63.667969 76.261719 64.46875 C 75.625 65.511719 72.183594 68.011719 68.441406 70.40625 Z M 45.671875 75.792969 C 41.25 75.328125 37.058594 74.636719 36.019531 73.996094 C 34.355469 72.96875 33.839844 70.78125 34.867188 69.125 C 35.535156 68.042969 36.695312 67.445312 37.882812 67.445312 C 38.519531 67.445312 39.160156 67.613281 39.738281 67.972656 C 40.773438 68.613281 43.273438 72.050781 45.671875 75.792969 Z M 82.898438 143.882812 L 84.257812 149.644531 C 84.398438 150.238281 84.296875 150.855469 83.980469 151.375 C 83.65625 151.894531 83.152344 152.257812 82.554688 152.402344 L 69.792969 155.425781 C 68.5625 155.714844 67.328125 154.953125 67.039062 153.722656 L 65.675781 147.964844 L 78.570312 144.914062 Z M 90.378906 136.644531 C 89.9375 137.359375 89.25 137.855469 88.4375 138.050781 L 83.777344 139.152344 L 62.519531 144.179688 C 62.519531 144.179688 62.515625 144.179688 62.515625 144.179688 L 58.113281 145.222656 C 56.433594 145.617188 54.738281 144.574219 54.339844 142.890625 L 53.3125 138.53125 L 89.730469 129.917969 L 90.761719 134.28125 C 90.957031 135.09375 90.820312 135.933594 90.378906 136.644531 Z M 90.378906 136.644531 " fill-opacity="1" fill-rule="nonzero"/></svg>