<svg xmlns="http://www.w3.org/2000/svg" xmlns:xlink="http://www.w3.org/1999/xlink" width="150" zoomAndPan="magnify" viewBox="0 0 112.5 184.499993" height="246" preserveAspectRatio="xMidYMid meet" version="1.0"><defs><clipPath id="82b7fc8c9c"><path d="M 1 37.09375 L 93 37.09375 L 93 102.800781 L 1 102.800781 Z M 1 37.09375 " clip-rule="nonzero"/></clipPath><clipPath id="38e7a9ecf5"><path d="M 7 64 L 111 64 L 111 138.472656 L 7 138.472656 Z M 7 64 " clip-rule="nonzero"/></clipPath></defs><g clip-path="url(#82b7fc8c9c)"><path fill="#ff005c" d="M 83.902344 81.40625 C 77.503906 87.863281 68.074219 93.644531 57.347656 97.691406 C 47.964844 101.230469 38.445312 103.117188 30.140625 103.117188 C 28.949219 103.117188 27.789062 103.078125 26.652344 103 C 16.050781 102.269531 8.8125 98.15625 6.269531 91.410156 L 2.539062 81.519531 C -0.00390625 74.773438 2.714844 66.898438 10.195312 59.355469 C 16.59375 52.898438 26.023438 47.117188 36.75 43.070312 C 47.476562 39.027344 58.378906 37.140625 67.445312 37.761719 C 78.046875 38.492188 85.285156 42.605469 87.828125 49.351562 L 91.558594 59.242188 C 94.101562 65.988281 91.386719 73.859375 83.902344 81.40625 Z M 83.902344 81.40625 " fill-opacity="1" fill-rule="nonzero"/></g><path fill="#000000" d="M 87.5625 60.746094 L 83.835938 50.859375 C 81.914062 45.765625 75.988281 42.628906 67.148438 42.019531 C 58.679688 41.441406 48.417969 43.230469 38.253906 47.066406 C 28.085938 50.898438 19.199219 56.332031 13.222656 62.359375 C 6.988281 68.652344 4.609375 74.921875 6.53125 80.015625 L 10.261719 89.90625 C 12.183594 94.996094 18.105469 98.136719 26.945312 98.742188 C 27.992188 98.816406 29.0625 98.851562 30.160156 98.851562 C 37.945312 98.851562 46.929688 97.058594 55.839844 93.699219 C 66.003906 89.867188 74.894531 84.4375 80.867188 78.40625 C 87.109375 72.109375 89.484375 65.839844 87.5625 60.746094 Z M 15.140625 64.257812 C 20.851562 58.5 29.398438 53.289062 39.207031 49.585938 C 47.8125 46.339844 56.464844 44.609375 63.917969 44.609375 C 64.960938 44.609375 65.976562 44.640625 66.964844 44.707031 C 74.578125 45.230469 79.804688 47.820312 81.3125 51.808594 C 82.816406 55.796875 80.597656 61.191406 75.226562 66.609375 C 69.515625 72.371094 60.96875 77.582031 51.160156 81.28125 C 41.351562 84.980469 31.492188 86.714844 23.402344 86.15625 C 15.789062 85.636719 10.5625 83.046875 9.054688 79.058594 C 7.550781 75.074219 9.769531 69.675781 15.140625 64.257812 Z M 66.863281 85.554688 L 64.097656 78.214844 C 66.738281 76.71875 69.203125 75.117188 71.445312 73.433594 L 74.183594 80.691406 C 71.972656 82.398438 69.515625 84.03125 66.863281 85.554688 Z M 56.148438 90.6875 L 53.367188 83.320312 C 56.273438 82.171875 59.066406 80.898438 61.707031 79.519531 L 64.476562 86.871094 C 61.851562 88.257812 59.058594 89.535156 56.148438 90.6875 Z M 44.667969 94.316406 L 41.894531 86.964844 C 44.847656 86.25 47.847656 85.351562 50.84375 84.269531 L 53.625 91.636719 C 50.617188 92.71875 47.613281 93.613281 44.667969 94.316406 Z M 33.289062 96.054688 L 30.550781 88.796875 C 33.347656 88.585938 36.261719 88.171875 39.238281 87.558594 L 42.007812 94.898438 C 39.003906 95.496094 36.078125 95.886719 33.289062 96.054688 Z M 12.785156 88.953125 L 11.5625 85.707031 C 13.0625 86.601562 14.839844 87.324219 16.867188 87.855469 C 16.863281 88.023438 16.890625 88.195312 16.953125 88.363281 L 19.265625 94.488281 C 15.953125 93.246094 13.691406 91.355469 12.785156 88.953125 Z M 27.128906 96.046875 C 25.46875 95.933594 23.917969 95.722656 22.5 95.417969 L 19.882812 88.476562 C 20.941406 88.640625 22.050781 88.765625 23.214844 88.847656 C 24.261719 88.917969 25.335938 88.953125 26.433594 88.953125 C 26.867188 88.953125 27.308594 88.949219 27.75 88.9375 C 27.765625 89.027344 27.789062 89.113281 27.820312 89.203125 L 30.441406 96.148438 C 29.308594 96.15625 28.203125 96.121094 27.128906 96.046875 Z M 78.957031 76.5 C 78.15625 77.3125 77.296875 78.105469 76.390625 78.890625 L 73.746094 71.882812 C 73.722656 71.8125 73.691406 71.75 73.65625 71.691406 C 74.90625 70.652344 76.074219 69.59375 77.144531 68.511719 C 77.910156 67.738281 78.617188 66.964844 79.269531 66.195312 L 81.890625 73.144531 C 81.046875 74.253906 80.074219 75.378906 78.957031 76.5 Z M 83.714844 70.351562 L 81.347656 64.074219 C 81.296875 63.945312 81.230469 63.828125 81.148438 63.722656 C 82.375 61.933594 83.265625 60.164062 83.816406 58.457031 L 85.039062 61.699219 C 85.96875 64.15625 85.480469 67.148438 83.714844 70.351562 Z M 27.25 83.664062 C 27.695312 83.679688 28.144531 83.683594 28.601562 83.683594 C 35.070312 83.683594 42.746094 82.125 50.390625 79.242188 C 58.574219 76.15625 65.78125 71.90625 70.683594 67.28125 C 75.882812 62.375 77.9375 57.527344 76.46875 53.636719 C 75.003906 49.742188 70.261719 47.460938 63.117188 47.210938 C 56.378906 46.972656 48.15625 48.542969 39.972656 51.628906 C 31.789062 54.71875 24.582031 58.964844 19.679688 63.59375 C 14.480469 68.496094 12.425781 73.34375 13.894531 77.238281 C 15.363281 81.128906 20.105469 83.410156 27.25 83.664062 Z M 21.53125 65.550781 C 26.183594 61.164062 33.070312 57.113281 40.925781 54.152344 C 48.273438 51.378906 55.609375 49.882812 61.753906 49.882812 C 62.183594 49.882812 62.605469 49.886719 63.023438 49.902344 C 68.921875 50.109375 72.90625 51.816406 73.949219 54.585938 C 76.003906 60.035156 66.648438 70.230469 49.4375 76.71875 C 41.582031 79.683594 33.738281 81.195312 27.34375 80.964844 C 21.441406 80.761719 17.460938 79.050781 16.417969 76.285156 C 15.375 73.515625 17.238281 69.601562 21.53125 65.550781 Z M 21.53125 65.550781 " fill-opacity="1" fill-rule="nonzero"/><g clip-path="url(#38e7a9ecf5)"><path fill="#ff005c" d="M 100.722656 114.085938 C 93.460938 121.410156 82.761719 127.972656 70.59375 132.5625 C 59.945312 136.578125 49.144531 138.71875 39.71875 138.71875 C 38.371094 138.71875 37.054688 138.671875 35.765625 138.585938 C 23.738281 137.757812 15.523438 133.089844 12.636719 125.433594 L 8.402344 114.214844 C 5.515625 106.558594 8.601562 97.625 17.089844 89.066406 C 24.351562 81.738281 35.050781 75.179688 47.21875 70.589844 C 59.390625 66 71.761719 63.859375 82.046875 64.566406 C 94.078125 65.390625 102.292969 70.058594 105.175781 77.714844 L 109.410156 88.9375 C 112.296875 96.589844 109.214844 105.523438 100.722656 114.085938 Z M 100.722656 114.085938 " fill-opacity="1" fill-rule="nonzero"/></g><path fill="#000000" d="M 104.875 90.644531 L 100.644531 79.425781 C 98.464844 73.648438 91.742188 70.085938 81.714844 69.398438 C 72.105469 68.738281 60.460938 70.769531 48.925781 75.121094 C 37.390625 79.46875 27.304688 85.632812 20.527344 92.476562 C 13.453125 99.613281 10.753906 106.726562 12.933594 112.503906 L 17.167969 123.726562 C 19.347656 129.503906 26.066406 133.066406 36.09375 133.753906 C 37.28125 133.835938 38.5 133.878906 39.742188 133.878906 C 48.578125 133.878906 58.773438 131.847656 68.878906 128.035156 C 80.414062 123.683594 90.5 117.523438 97.277344 110.679688 C 104.359375 103.535156 107.054688 96.421875 104.875 90.644531 Z M 22.703125 94.628906 C 29.179688 88.09375 38.878906 82.179688 50.007812 77.980469 C 59.773438 74.296875 69.585938 72.332031 78.046875 72.332031 C 79.226562 72.332031 80.378906 72.371094 81.503906 72.445312 C 90.140625 73.039062 96.074219 75.976562 97.78125 80.5 C 99.488281 85.027344 96.972656 91.148438 90.875 97.296875 C 84.398438 103.832031 74.699219 109.742188 63.570312 113.941406 C 52.441406 118.140625 41.253906 120.109375 32.074219 119.476562 C 23.4375 118.882812 17.503906 115.945312 15.796875 111.421875 C 14.089844 106.898438 16.609375 100.777344 22.703125 94.628906 Z M 81.390625 118.792969 L 78.25 110.464844 C 81.246094 108.765625 84.042969 106.945312 86.589844 105.039062 L 89.695312 113.273438 C 87.183594 115.210938 84.394531 117.0625 81.390625 118.792969 Z M 69.230469 124.617188 L 66.078125 116.253906 C 69.375 114.957031 72.539062 113.507812 75.535156 111.945312 L 78.683594 120.285156 C 75.703125 121.859375 72.53125 123.308594 69.230469 124.617188 Z M 56.203125 128.734375 L 53.054688 120.394531 C 56.40625 119.582031 59.808594 118.558594 63.214844 117.335938 L 66.367188 125.695312 C 62.957031 126.921875 59.546875 127.9375 56.203125 128.734375 Z M 43.292969 130.703125 L 40.1875 122.46875 C 43.359375 122.230469 46.667969 121.761719 50.046875 121.066406 L 53.1875 129.394531 C 49.777344 130.074219 46.457031 130.515625 43.292969 130.703125 Z M 20.03125 122.648438 L 18.640625 118.964844 C 20.34375 119.980469 22.359375 120.800781 24.664062 121.402344 C 24.65625 121.59375 24.6875 121.789062 24.757812 121.976562 L 27.378906 128.929688 C 23.621094 127.519531 21.058594 125.371094 20.03125 122.648438 Z M 36.304688 130.699219 C 34.417969 130.570312 32.664062 130.328125 31.050781 129.980469 L 28.082031 122.105469 C 29.285156 122.296875 30.542969 122.4375 31.863281 122.527344 C 33.050781 122.609375 34.269531 122.648438 35.511719 122.648438 C 36.007812 122.648438 36.507812 122.640625 37.007812 122.628906 C 37.023438 122.730469 37.054688 122.832031 37.089844 122.929688 L 40.0625 130.8125 C 38.777344 130.820312 37.523438 130.78125 36.304688 130.699219 Z M 95.113281 108.519531 C 94.203125 109.4375 93.226562 110.339844 92.199219 111.230469 L 89.199219 103.277344 C 89.171875 103.203125 89.136719 103.128906 89.09375 103.0625 C 90.511719 101.882812 91.835938 100.679688 93.054688 99.453125 C 93.921875 98.578125 94.726562 97.699219 95.464844 96.824219 L 98.4375 104.710938 C 97.484375 105.96875 96.375 107.246094 95.113281 108.519531 Z M 100.507812 101.542969 L 97.820312 94.421875 C 97.765625 94.273438 97.6875 94.140625 97.597656 94.019531 C 98.988281 91.988281 100 89.984375 100.625 88.042969 L 102.011719 91.726562 C 103.066406 94.511719 102.511719 97.910156 100.507812 101.542969 Z M 36.441406 116.644531 C 36.945312 116.664062 37.457031 116.671875 37.972656 116.671875 C 45.316406 116.671875 54.023438 114.902344 62.695312 111.628906 C 71.980469 108.128906 80.160156 103.304688 85.722656 98.058594 C 91.625 92.492188 93.953125 86.992188 92.289062 82.574219 C 90.625 78.15625 85.242188 75.570312 77.136719 75.285156 C 69.492188 75.015625 60.164062 76.796875 50.878906 80.300781 C 41.59375 83.800781 33.414062 88.621094 27.851562 93.871094 C 21.953125 99.4375 19.621094 104.9375 21.285156 109.355469 C 22.953125 113.769531 28.335938 116.359375 36.441406 116.644531 Z M 29.953125 96.097656 C 35.230469 91.117188 43.042969 86.523438 51.960938 83.160156 C 60.292969 80.015625 68.617188 78.316406 75.59375 78.316406 C 76.078125 78.316406 76.558594 78.324219 77.03125 78.339844 C 83.726562 78.574219 88.242188 80.511719 89.429688 83.65625 C 91.761719 89.835938 81.140625 101.40625 61.617188 108.765625 C 52.703125 112.128906 43.800781 113.84375 36.546875 113.585938 C 29.851562 113.351562 25.335938 111.414062 24.148438 108.273438 C 22.964844 105.132812 25.082031 100.691406 29.953125 96.097656 Z M 29.953125 96.097656 " fill-opacity="1" fill-rule="nonzero"/></svg>