<svg xmlns="http://www.w3.org/2000/svg" xmlns:xlink="http://www.w3.org/1999/xlink" width="150" zoomAndPan="magnify" viewBox="0 0 112.5 184.499993" height="246" preserveAspectRatio="xMidYMid meet" version="1.0"><defs><clipPath id="1ba9011273"><path d="M 1 3 L 109 3 L 109 183.835938 L 1 183.835938 Z M 1 3 " clip-rule="nonzero"/></clipPath></defs><g clip-path="url(#1ba9011273)"><path fill="#00b64f" d="M 105.214844 174.53125 L 76.929688 183.015625 C 74.449219 183.761719 71.828125 182.347656 71.089844 179.859375 L 50.125 109.742188 C 38.542969 108.734375 27.359375 103.949219 18.625 95.980469 C 6.285156 84.714844 0.00390625 68.296875 1.386719 50.929688 C 2.5 36.988281 9.40625 24.046875 20.335938 15.417969 C 35.0625 3.796875 53.367188 0.253906 70.546875 5.695312 C 87.417969 11.042969 100.515625 24.34375 105.574219 41.273438 C 111.984375 62.714844 104.296875 85.347656 87.417969 98.59375 L 108.367188 168.675781 C 109.109375 171.164062 107.699219 173.785156 105.214844 174.53125 Z M 105.214844 174.53125 " fill-opacity="1" fill-rule="nonzero"/></g><path fill="#000000" d="M 82.039062 108.09375 C 81.617188 106.679688 80.671875 105.519531 79.378906 104.820312 C 78.539062 104.367188 77.613281 104.148438 76.6875 104.164062 L 74.652344 97.359375 C 94.398438 87.617188 104.414062 64.886719 98.035156 43.535156 C 94.5625 31.917969 86.761719 22.339844 76.078125 16.570312 C 65.390625 10.800781 53.121094 9.535156 41.523438 13.015625 C 17.546875 20.214844 3.882812 45.613281 11.0625 69.628906 C 16.894531 89.136719 34.792969 102.074219 54.503906 102.070312 C 56.367188 102.070312 58.242188 101.953125 60.128906 101.714844 L 62.164062 108.515625 C 61.378906 109.015625 60.726562 109.707031 60.273438 110.550781 C 59.578125 111.84375 59.421875 113.335938 59.847656 114.746094 L 76.144531 169.261719 C 76.566406 170.671875 77.511719 171.835938 78.804688 172.53125 C 79.617188 172.972656 80.507812 173.195312 81.40625 173.195312 C 81.9375 173.195312 82.46875 173.117188 82.992188 172.964844 L 94.648438 169.46875 C 96.058594 169.046875 97.214844 168.097656 97.914062 166.804688 C 98.609375 165.507812 98.761719 164.019531 98.339844 162.605469 Z M 61.460938 96.484375 C 41.316406 100.011719 21.695312 87.847656 15.824219 68.203125 C 9.429688 46.8125 21.601562 24.195312 42.953125 17.789062 C 53.277344 14.691406 64.207031 15.816406 73.722656 20.953125 C 83.238281 26.09375 90.183594 34.617188 93.273438 44.964844 C 99.144531 64.609375 89.429688 85.566406 70.664062 93.71875 C 69.507812 94.222656 68.914062 95.511719 69.273438 96.722656 L 71.863281 105.390625 L 66.867188 106.886719 L 64.277344 98.21875 C 63.957031 97.152344 62.976562 96.445312 61.898438 96.445312 C 61.753906 96.449219 61.609375 96.460938 61.460938 96.484375 Z M 93.53125 164.441406 C 93.484375 164.527344 93.390625 164.644531 93.214844 164.699219 L 81.558594 168.195312 C 81.386719 168.246094 81.242188 168.203125 81.15625 168.152344 C 81.070312 168.105469 80.953125 168.011719 80.898438 167.835938 L 64.601562 113.324219 C 64.550781 113.148438 64.59375 113.007812 64.644531 112.921875 C 64.691406 112.832031 64.785156 112.71875 64.960938 112.664062 L 72.816406 110.304688 L 75.667969 109.449219 L 76.613281 109.167969 C 76.664062 109.152344 76.71875 109.144531 76.765625 109.144531 C 76.867188 109.144531 76.957031 109.175781 77.011719 109.203125 C 77.101562 109.25 77.214844 109.347656 77.269531 109.519531 L 93.566406 164.035156 C 93.625 164.214844 93.578125 164.355469 93.53125 164.441406 Z M 85.019531 73.042969 C 89.410156 64.878906 90.371094 55.5 87.726562 46.632812 C 82.246094 28.304688 62.910156 17.859375 44.613281 23.351562 C 35.769531 26.003906 28.476562 31.964844 24.078125 40.132812 C 19.6875 48.296875 18.726562 57.675781 21.371094 66.542969 C 24.019531 75.40625 29.972656 82.710938 38.121094 87.117188 C 43.253906 89.890625 48.867188 91.296875 54.53125 91.296875 C 57.863281 91.296875 61.210938 90.8125 64.484375 89.828125 C 73.332031 87.164062 80.625 81.207031 85.019531 73.042969 Z M 40.484375 82.726562 C 33.5 78.957031 28.410156 72.703125 26.136719 65.109375 C 23.867188 57.523438 24.691406 49.488281 28.453125 42.492188 C 32.214844 35.5 38.460938 30.398438 46.039062 28.121094 C 48.867188 27.273438 51.726562 26.867188 54.535156 26.867188 C 67.296875 26.867188 79.113281 35.195312 82.960938 48.0625 C 85.230469 55.648438 84.40625 63.683594 80.644531 70.675781 C 76.878906 77.671875 70.636719 82.773438 63.058594 85.046875 C 55.484375 87.320312 47.464844 86.496094 40.484375 82.726562 Z M 40.484375 82.726562 " fill-opacity="1" fill-rule="nonzero"/></svg>